<?xml version="1.0" standalone="no"?>
<!DOCTYPE svg PUBLIC "-//W3C//DTD SVG 20010904//EN"
 "http://www.w3.org/TR/2001/REC-SVG-20010904/DTD/svg10.dtd">
<svg version="1.0" xmlns="http://www.w3.org/2000/svg"
 width="762.000000pt" height="762.000000pt" viewBox="0 0 762.000000 762.000000"
 preserveAspectRatio="xMidYMid meet">
<metadata>
Created by potrace 1.11, written by Peter Selinger 2001-2013
</metadata>
<g transform="translate(0.000000,762.000000) scale(0.100000,-0.100000)"
fill="#000000" stroke="none">
<path d="M3739 7573 c0 -21 -1 -63 -1 -93 -1 -30 -6 -58 -12 -62 -8 -5 -7 -8
2 -8 6 0 12 -8 12 -18 0 -10 -6 -24 -12 -31 -7 -8 -8 -11 -2 -8 8 5 11 -6 10
-30 -1 -20 -8 -39 -14 -41 -7 -2 -12 -10 -12 -17 0 -7 -6 -16 -12 -18 -10 -4
-10 -6 0 -6 7 -1 15 6 18 14 10 25 19 17 19 -15 0 -18 -5 -30 -13 -30 -7 0
-11 4 -8 8 2 4 -4 8 -14 9 -11 1 -22 -2 -25 -8 -4 -5 -11 -9 -17 -9 -6 0 -4 8
5 18 11 12 13 22 6 33 -6 12 -5 19 6 23 8 3 15 10 15 16 0 5 -9 2 -19 -7 -15
-12 -17 -21 -10 -34 5 -11 5 -20 0 -23 -5 -4 -14 6 -20 21 l-11 28 6 -30 c5
-29 5 -29 -14 -12 -16 15 -22 16 -28 5 -4 -7 -4 -10 0 -6 8 7 59 -33 51 -40
-2 -3 -11 0 -19 7 -11 9 -15 8 -19 -3 -4 -10 -1 -13 7 -10 7 3 13 -2 13 -11 0
-9 -6 -14 -14 -11 -7 3 -12 2 -11 -2 4 -12 -35 -71 -44 -66 -4 3 -5 -2 -1 -12
5 -13 11 -8 29 22 13 22 29 40 36 40 7 1 17 2 22 3 5 0 3 8 -4 16 -9 10 -9 15
-1 15 6 0 11 -5 11 -11 0 -5 4 -8 9 -4 5 3 12 1 15 -4 4 -5 18 -8 32 -5 18 3
25 1 21 -8 -2 -7 0 -21 5 -30 7 -14 5 -16 -9 -11 -14 5 -16 4 -8 -8 15 -20 12
-52 -4 -57 -10 -3 -12 0 -7 14 12 31 12 36 -2 41 -7 3 -12 1 -11 -4 4 -21 -2
-34 -12 -27 -8 5 -10 -1 -7 -19 3 -15 1 -24 -4 -21 -5 3 -8 16 -7 27 0 12 1
27 0 33 -1 12 -31 15 -31 2 0 -4 4 -8 9 -8 5 0 8 -11 7 -24 0 -13 -4 -22 -8
-19 -5 2 -8 -1 -8 -7 0 -6 -5 -8 -11 -4 -8 5 -8 8 0 13 6 4 9 18 6 31 -2 13 0
29 5 35 5 6 5 17 1 24 -6 9 -11 10 -15 2 -4 -6 -2 -11 4 -11 6 0 8 -5 5 -10
-4 -6 -11 -8 -16 -5 -5 3 -6 -2 -2 -11 4 -11 3 -15 -5 -10 -12 7 -35 -27 -25
-38 3 -3 -5 -6 -18 -7 -23 0 -23 0 -3 -9 23 -9 41 -30 27 -30 -5 0 -14 5 -20
11 -9 9 -11 5 -9 -15 2 -18 -1 -26 -9 -23 -6 3 -12 -1 -12 -9 0 -7 4 -11 9 -8
20 13 47 12 42 -1 -3 -8 -13 -11 -22 -8 -13 4 -12 2 3 -10 19 -16 19 -16 1
-17 -16 0 -15 -3 8 -21 21 -17 30 -19 39 -9 9 9 8 11 -7 8 -10 -1 -21 3 -23
10 -3 7 1 10 10 6 8 -3 18 -1 22 5 3 6 0 9 -8 5 -8 -3 -18 -1 -22 5 -3 6 -1
11 5 11 6 0 9 4 5 10 -8 14 34 53 51 46 8 -3 14 -1 14 5 0 7 -10 9 -25 5 -14
-4 -25 -2 -25 2 0 5 12 9 28 8 17 -1 27 -7 27 -16 0 -9 -8 -14 -20 -12 -19 2
-19 1 3 -17 24 -21 31 -41 8 -22 -11 9 -20 10 -35 1 -27 -14 -27 -20 0 -15 12
3 29 0 38 -6 12 -8 11 -9 -9 -4 -24 6 -24 5 -6 -9 11 -9 15 -16 10 -16 -6 0
-15 5 -21 11 -9 9 -12 7 -10 -9 0 -12 7 -24 14 -26 7 -3 13 -13 12 -23 0 -15
-2 -15 -7 -3 -4 8 -18 16 -31 18 -20 2 -22 0 -11 -13 7 -8 16 -12 21 -9 5 3 9
0 9 -5 0 -6 -5 -11 -11 -11 -5 0 -7 -5 -4 -10 4 -6 11 -8 16 -5 5 3 6 -2 2
-11 -4 -12 -3 -15 5 -10 7 4 12 2 12 -3 0 -18 -17 -12 -34 12 -15 19 -16 20
-10 2 4 -11 6 -28 6 -38 -1 -15 2 -16 13 -7 10 8 15 8 21 -1 4 -7 3 -9 -3 -6
-6 4 -16 0 -23 -9 -12 -13 -10 -14 15 -10 15 3 24 2 20 -2 -6 -7 -10 -8 -36
-11 -5 0 -7 -6 -4 -11 4 -6 10 -8 15 -5 4 3 6 -4 3 -15 -3 -11 -9 -20 -14 -20
-5 0 -6 7 -2 15 3 10 0 15 -8 13 -9 -2 -14 5 -13 19 1 19 -1 20 -22 11 -13 -6
-24 -16 -24 -22 0 -6 5 -5 12 2 18 18 33 15 18 -3 -10 -13 -11 -18 -1 -28 10
-9 11 -8 6 8 -5 15 -5 17 3 6 10 -14 0 -51 -14 -51 -3 0 -3 4 0 9 3 5 -1 14
-9 21 -10 9 -15 9 -15 1 0 -6 5 -11 11 -11 5 0 7 -5 3 -12 -5 -8 -11 -6 -19 6
-11 15 -13 15 -19 1 -3 -9 -2 -13 3 -10 6 3 14 -2 19 -12 8 -14 13 -15 25 -4
14 11 16 9 14 -8 -1 -13 -6 -19 -14 -17 -7 3 -10 -1 -6 -10 7 -20 -7 -18 -24
4 -13 15 -13 15 -4 -4 6 -12 7 -24 3 -28 -3 -4 1 -4 10 -1 9 4 19 2 22 -4 4
-6 13 -8 22 -4 12 5 12 8 -3 20 -10 8 -13 12 -6 8 8 -3 11 1 8 15 -5 27 6 25
28 -5 18 -25 17 -25 -6 -36 -22 -10 -34 -39 -15 -39 4 0 8 4 8 10 0 5 9 14 20
20 14 7 20 7 20 0 0 -5 -8 -10 -17 -10 -17 -1 -17 -1 0 -14 9 -7 17 -17 17
-22 0 -4 -5 -3 -12 4 -24 24 -31 12 -8 -13 13 -14 21 -25 17 -25 -3 0 -16 10
-27 23 -20 21 -22 21 -35 4 -7 -11 -16 -14 -19 -8 -4 5 0 13 8 18 19 11 21 24
4 34 -20 13 -26 11 -33 -10 -4 -13 -12 -18 -23 -15 -14 5 -15 4 -2 -5 12 -8
19 -5 32 12 14 18 18 19 18 5 0 -9 -5 -20 -11 -23 -7 -5 -4 -14 7 -26 12 -13
13 -19 4 -19 -7 0 -19 8 -27 18 -13 15 -13 15 -4 -5 8 -16 8 -23 -2 -27 -6 -3
-1 -3 13 1 22 5 23 4 11 -11 -8 -9 -11 -19 -8 -22 5 -5 38 48 37 61 -1 22 1
25 11 19 8 -4 7 -9 -2 -15 -8 -5 -12 -9 -9 -10 3 0 12 -2 20 -4 8 -3 23 -6 32
-8 10 -2 20 -6 24 -10 8 -8 -32 -1 -46 8 -6 3 -10 2 -10 -4 0 -5 6 -12 13 -15
6 -3 0 -3 -16 -1 -15 2 -25 0 -22 -5 3 -5 1 -11 -5 -15 -6 -4 -8 -11 -5 -16 3
-5 0 -6 -8 -3 -8 3 -17 -2 -21 -12 -5 -14 -4 -15 8 -5 12 10 15 9 13 -8 -1
-16 -6 -19 -20 -15 -13 4 -17 2 -13 -5 4 -6 12 -11 18 -11 6 0 16 -7 22 -15 9
-13 11 -10 11 14 1 16 -3 27 -8 24 -5 -3 -2 6 7 19 9 14 13 28 9 31 -3 4 -1 7
6 7 8 0 11 -7 7 -15 -3 -8 0 -14 6 -12 6 1 13 -5 15 -13 3 -10 2 -11 -4 -3 -5
7 -14 9 -22 4 -10 -7 -9 -10 8 -16 18 -5 20 -10 10 -21 -6 -7 -15 -11 -20 -8
-5 3 -9 0 -9 -5 0 -16 21 -13 44 7 20 17 20 17 0 -9 -10 -15 -22 -25 -26 -23
-10 7 -38 -7 -33 -17 3 -4 12 -6 19 -3 7 3 18 -2 25 -10 10 -12 10 -19 -2 -36
-7 -11 -17 -17 -20 -13 -4 3 -7 1 -7 -5 0 -6 9 -14 20 -17 11 -3 20 -11 20
-16 0 -5 -10 -3 -23 6 -13 8 -27 12 -32 8 -4 -5 -3 2 4 14 9 18 6 27 -22 60
-61 72 -82 95 -134 147 -29 28 -53 54 -53 57 0 4 -24 31 -52 61 -54 55 -100
106 -177 195 l-43 51 -37 -18 c-20 -10 -56 -28 -80 -40 -24 -11 -50 -19 -58
-16 -8 3 -11 2 -8 -3 7 -12 -31 -24 -47 -15 -7 4 -10 4 -6 -1 4 -4 -13 -19
-39 -32 -36 -18 -49 -20 -54 -11 -7 10 -11 10 -21 -1 -10 -10 -10 -12 0 -7 6
4 12 2 12 -3 0 -6 -7 -11 -15 -11 -8 0 -15 -4 -15 -9 0 -5 -9 -11 -20 -14 -13
-3 -18 -1 -14 6 3 7 -1 4 -9 -5 -8 -10 -18 -18 -23 -18 -5 -1 -27 -9 -49 -20
-40 -18 -61 -18 -49 2 4 7 2 8 -4 4 -6 -4 -9 -13 -5 -21 3 -9 -1 -15 -10 -15
-8 0 -18 -6 -20 -12 -4 -10 -6 -10 -6 0 -1 8 -8 6 -23 -7 -11 -11 -25 -18 -29
-15 -4 2 -11 -1 -14 -7 -4 -5 -14 -8 -22 -5 -8 3 -11 1 -8 -4 3 -6 -3 -10 -14
-10 -12 0 -21 -4 -21 -10 0 -5 -9 -10 -19 -10 -11 0 -23 -5 -26 -10 -5 -8 -11
-7 -21 1 -12 10 -13 9 -8 -4 4 -12 1 -15 -15 -12 -11 2 -20 1 -18 -3 1 -4 -2
-7 -8 -7 -5 0 -8 5 -7 10 2 6 0 6 -5 2 -4 -5 -8 -14 -8 -20 0 -7 -10 -13 -22
-15 -13 -2 -23 -8 -23 -13 0 -5 -9 -9 -19 -9 -11 0 -23 -5 -26 -10 -4 -6 -11
-8 -16 -5 -5 4 -9 2 -9 -2 0 -5 -15 -14 -33 -21 -40 -14 -50 -15 -42 -3 3 5 1
12 -4 16 -6 3 -8 -4 -6 -15 3 -17 -4 -25 -33 -37 -20 -8 -56 -24 -80 -34 -23
-11 -47 -17 -52 -14 -5 3 -12 0 -16 -6 -5 -8 -3 -9 6 -4 9 5 11 4 6 -4 -4 -7
-13 -10 -19 -8 -7 2 -19 -1 -27 -8 -8 -7 -24 -15 -35 -17 -11 -1 -26 -9 -33
-16 -8 -7 -18 -10 -23 -7 -5 4 -9 1 -9 -5 0 -6 -4 -9 -9 -6 -5 4 -11 3 -13 -2
-1 -4 -33 -20 -70 -36 -67 -28 -82 -47 -33 -41 26 2 31 -4 18 -21 -5 -5 -1 -1
9 8 19 21 33 24 22 6 -6 -10 -4 -10 7 0 13 12 68 18 56 5 -4 -3 0 -14 9 -24
14 -16 14 -18 -3 -27 -10 -6 -22 -9 -28 -9 -5 1 -11 -9 -12 -23 l-2 -25 8 25
c5 14 9 21 10 16 1 -4 12 -1 25 8 15 10 27 12 31 6 3 -6 2 -10 -3 -10 -15 0
-56 -40 -49 -47 4 -3 7 -3 7 2 0 4 8 1 18 -8 13 -12 21 -13 32 -6 13 9 12 10
-2 6 -20 -7 -45 18 -28 28 5 3 10 1 10 -4 0 -6 5 -11 11 -11 8 0 8 5 -1 15 -8
9 -9 15 -2 15 6 0 17 -8 24 -18 15 -21 45 -42 34 -23 -8 13 10 41 26 41 6 0 6
-6 -1 -14 -6 -8 -11 -18 -10 -22 4 -22 -2 -35 -13 -28 -7 4 -8 3 -4 -5 4 -6
11 -9 16 -6 4 3 11 -1 14 -7 3 -7 3 -3 0 9 -4 17 -2 21 9 17 8 -3 18 0 22 6 5
8 12 6 25 -5 11 -10 21 -12 24 -7 3 6 15 8 27 5 16 -4 20 -2 17 12 -2 10 2 20
8 22 13 5 15 -28 1 -44 -6 -9 -6 -13 2 -13 6 0 11 5 11 11 0 8 4 9 13 0 21
-17 29 0 12 26 -17 25 -9 30 16 10 9 -7 14 -19 12 -27 -3 -8 4 -2 15 13 11 16
22 28 26 28 24 -3 27 1 13 17 -10 10 -14 22 -10 25 3 4 1 7 -5 7 -7 0 -12 5
-12 11 0 5 5 7 10 4 6 -3 10 -1 10 4 0 6 5 11 11 11 8 0 7 -6 -2 -17 -12 -15
-12 -16 4 -10 10 4 21 7 23 7 3 0 2 5 -2 12 -4 6 -3 8 4 4 5 -3 13 0 15 6 4 9
6 10 6 1 1 -6 -8 -18 -19 -26 -11 -8 -17 -17 -13 -21 4 -4 -1 -4 -12 0 -18 7
-19 6 -6 -10 14 -17 16 -16 32 6 18 23 51 32 79 21 27 -11 55 -11 63 1 5 6 5
0 2 -14 -6 -21 -5 -23 6 -12 8 7 14 20 14 29 0 9 8 17 18 19 9 1 15 -2 11 -7
-5 -9 9 -13 34 -10 6 1 12 -6 12 -15 0 -13 3 -14 13 -5 8 6 17 7 22 3 4 -4 6
0 3 8 -3 8 -11 15 -18 15 -7 0 -14 6 -16 13 -1 7 0 8 3 2 2 -5 8 -8 13 -5 4 2
15 -4 25 -15 11 -13 14 -20 6 -20 -7 0 -9 -5 -6 -10 4 -6 10 -8 15 -5 5 3 12
0 16 -6 4 -8 3 -9 -4 -5 -7 4 -12 2 -12 -3 0 -6 4 -11 8 -11 17 0 21 13 11 32
-9 18 -8 18 10 8 12 -6 21 -7 21 -1 0 5 -5 11 -12 13 -8 3 -6 7 4 10 12 5 15
1 13 -18 -1 -13 4 -29 11 -35 11 -9 13 -4 9 28 -2 21 -1 32 2 25 2 -6 10 -9
16 -5 7 4 5 -2 -3 -12 -11 -14 -12 -19 -2 -22 6 -3 10 -9 6 -14 -3 -5 -1 -9 4
-9 16 0 22 13 11 27 -6 7 -7 13 -3 13 13 0 36 -39 29 -50 -3 -5 3 -13 12 -19
14 -8 15 -11 3 -12 -8 -1 -22 0 -29 1 -13 1 -13 -1 -2 -14 7 -9 18 -13 24 -9
5 3 7 1 3 -5 -3 -6 -2 -13 4 -17 12 -7 14 -26 3 -24 -20 3 -34 -2 -28 -11 3
-5 13 -6 23 -3 14 5 15 3 5 -7 -17 -18 -43 4 -38 31 2 11 0 17 -4 14 -13 -8
-5 53 9 70 7 9 10 18 7 21 -3 3 -13 -7 -22 -23 -9 -16 -14 -19 -11 -8 5 17 4
18 -6 5 -12 -14 -15 -14 -30 1 -10 10 -12 19 -6 21 6 2 4 9 -5 16 -12 10 -14
8 -12 -13 2 -18 -1 -24 -13 -22 -10 1 -18 -2 -19 -8 -1 -5 12 -11 29 -12 17
-2 37 -8 45 -14 11 -10 11 -15 -3 -30 -20 -22 -33 -17 -15 5 9 10 9 16 1 21
-6 4 -14 4 -17 1 -4 -3 -1 -6 7 -6 10 0 10 -3 1 -14 -10 -12 -9 -20 5 -42 22
-33 27 -57 10 -51 -7 3 -19 1 -27 -4 -12 -8 -12 -10 1 -8 27 3 40 -1 40 -12 0
-6 -9 -8 -22 -4 -17 5 -19 4 -8 -4 12 -8 12 -12 -1 -28 -23 -26 -34 -47 -22
-40 6 4 13 0 17 -8 3 -8 1 -17 -4 -20 -6 -4 -10 -1 -10 4 0 6 -4 11 -9 11 -10
0 -8 -40 3 -59 4 -6 12 -8 18 -5 6 4 8 2 4 -4 -3 -5 0 -13 6 -16 9 -3 8 -8 -5
-16 -9 -6 -15 -16 -12 -21 4 -5 11 -7 16 -4 15 10 10 -2 -8 -16 -11 -10 -14
-10 -9 -2 5 9 1 12 -15 10 -16 -1 -22 4 -24 25 -3 19 0 25 10 22 21 -8 23 10
3 29 -17 16 -23 11 -19 -15 0 -5 -7 -8 -16 -8 -17 -1 -17 -1 0 -11 9 -5 17
-15 17 -21 0 -7 -4 -7 -13 0 -8 7 -18 7 -27 2 -13 -9 -13 -10 0 -11 8 -1 18
-1 22 -1 3 1 9 -6 12 -15 5 -12 2 -14 -14 -10 -11 3 -18 1 -14 -4 3 -5 0 -9
-5 -9 -6 0 -11 6 -11 14 0 8 -7 17 -16 20 -13 5 -14 3 -7 -6 14 -18 10 -58 -8
-69 -12 -7 -12 -9 1 -10 8 -1 18 -1 23 0 4 0 7 -5 7 -12 0 -13 -5 -15 -49 -19
-12 -2 -17 -8 -13 -17 3 -9 1 -12 -6 -7 -7 4 -12 2 -12 -4 0 -6 12 -8 30 -5
23 4 28 2 24 -10 -5 -11 -2 -13 10 -9 9 3 13 11 9 18 -4 6 1 5 10 -3 18 -15
23 -26 7 -16 -5 3 -10 1 -10 -4 0 -6 -3 -10 -7 -10 -5 1 -10 0 -13 -1 -20 -7
-40 -7 -40 2 0 6 7 7 16 4 9 -3 12 -2 9 5 -4 6 -14 8 -22 5 -8 -3 -24 -1 -36
5 -22 10 -22 10 -2 -6 17 -14 18 -17 5 -26 -11 -8 -9 -9 10 -3 22 6 23 5 11
-9 -10 -13 -18 -14 -33 -6 -18 10 -18 9 -8 -11 9 -18 8 -25 -6 -41 -19 -21
-40 -26 -28 -7 5 7 3 8 -5 3 -9 -5 -10 -10 -2 -18 8 -8 14 -8 23 1 20 20 32
13 13 -8 -14 -15 -22 -17 -39 -9 -13 7 -10 1 9 -15 17 -14 25 -25 20 -26 -6 0
-16 5 -23 12 -7 7 -12 8 -12 4 0 -5 -8 -2 -17 5 -14 11 -13 8 2 -11 11 -14 24
-28 29 -31 4 -4 3 -9 -2 -13 -6 -4 -16 2 -22 11 -10 15 -11 16 -6 1 2 -9 -2
-22 -10 -28 -19 -16 -18 -46 2 -54 10 -4 13 -2 8 6 -5 7 -3 8 6 3 9 -5 11 -4
6 4 -4 6 -12 9 -17 6 -5 -4 -9 0 -9 8 0 7 7 14 15 14 8 0 15 -6 15 -14 0 -21
1 -27 11 -45 7 -13 4 -18 -11 -23 -11 -4 -18 -10 -15 -15 3 -4 -2 -14 -11 -21
-14 -12 -14 -14 2 -26 10 -7 13 -13 8 -13 -6 0 -15 5 -21 11 -8 8 -13 8 -17 0
-4 -6 -3 -11 2 -11 5 0 10 -11 10 -25 0 -14 -5 -25 -10 -25 -5 0 -6 5 -3 10 3
6 2 10 -4 10 -15 0 -23 -18 -11 -25 16 -10 12 -23 -8 -29 -11 -4 -25 -18 -32
-32 -12 -22 -12 -27 0 -35 12 -8 11 -9 -4 -7 -10 2 -21 -3 -24 -11 -2 -8 0
-11 5 -8 6 4 9 -1 8 -11 -3 -30 -16 -51 -36 -57 -10 -4 -19 -11 -19 -16 0 -6
4 -8 8 -5 5 3 9 -1 9 -9 0 -10 -4 -12 -12 -5 -7 5 -15 7 -18 3 -10 -9 -9 -25
1 -19 5 3 9 -1 9 -9 0 -16 -24 -28 -38 -19 -6 4 -6 10 0 18 6 7 8 16 4 19 -3
4 0 7 8 7 12 0 11 2 -1 11 -13 9 -12 10 3 5 21 -7 23 10 2 18 -8 3 -15 1 -15
-5 0 -6 -4 -8 -9 -4 -5 3 -13 1 -16 -5 -4 -6 -3 -10 2 -9 26 5 24 -4 -7 -22
-19 -10 -28 -18 -20 -17 17 3 75 -51 65 -60 -3 -4 -10 0 -14 7 -11 17 -18 4
-16 -31 0 -15 -3 -24 -7 -22 -4 3 -8 -3 -9 -13 0 -16 -1 -16 -9 2 -5 11 -9 18
-11 15 -3 -9 -10 -55 -10 -73 0 -13 -5 -17 -15 -13 -11 4 -14 1 -10 -12 7 -22
-19 -56 -36 -47 -7 4 -2 -2 11 -13 18 -14 21 -21 11 -27 -8 -5 -11 -4 -7 2 4
6 1 13 -7 16 -16 6 -17 -38 -1 -63 8 -13 7 -13 -8 -1 -9 7 -17 19 -17 27 0 7
-8 11 -20 9 -11 -2 -20 0 -20 4 0 16 13 20 32 10 18 -10 18 -9 8 11 -9 16 -9
20 -1 15 6 -3 11 -3 10 2 -1 4 -1 15 0 23 1 12 3 13 10 1 6 -9 11 -10 15 -2 4
6 2 11 -4 11 -6 0 -8 5 -4 11 4 8 9 7 15 -2 6 -10 8 -6 7 11 -2 17 1 24 11 22
12 -3 12 0 2 12 -10 12 -9 19 3 39 9 13 13 27 9 32 -5 4 -2 5 6 0 10 -6 12 -4
6 5 -6 9 -4 11 5 5 9 -5 11 -4 6 3 -5 8 -2 10 8 6 18 -7 22 11 4 22 -7 5 -9 2
-4 -7 4 -8 0 -5 -8 5 -18 23 -13 34 8 17 10 -8 16 -9 21 -1 3 5 -1 10 -10 10
-9 0 -14 3 -12 8 3 4 -9 8 -26 9 -24 1 -27 0 -12 -6 19 -8 19 -8 0 -20 -18
-11 -18 -12 -2 -7 12 4 17 2 14 -6 -2 -7 -13 -12 -23 -10 -18 2 -18 2 -1 -12
11 -8 14 -17 8 -20 -6 -4 -8 -13 -4 -22 8 -22 -19 -13 -34 11 -7 11 -12 15
-13 9 0 -5 7 -19 15 -30 18 -24 19 -34 1 -34 -7 0 -19 -7 -26 -15 -15 -18 -35
-20 -24 -3 4 6 3 8 -4 5 -10 -7 -11 -33 -1 -39 2 -2 3 -1 1 1 -3 5 50 41 60
41 4 0 5 -7 2 -15 -3 -8 -11 -13 -17 -12 -7 1 -11 -4 -10 -10 2 -7 -2 -13 -7
-13 -5 0 -9 -3 -9 -7 3 -21 -2 -26 -12 -13 -9 13 -10 13 -6 -2 5 -14 -28 -57
-39 -50 -2 1 -4 -1 -3 -4 0 -4 -5 -11 -13 -15 -9 -6 -9 -9 -1 -9 6 0 15 5 18
10 9 15 25 12 25 -6 0 -8 -4 -13 -8 -10 -4 2 -14 1 -22 -5 -10 -6 -11 -9 -2
-9 6 0 12 -5 12 -11 0 -6 -7 -9 -14 -6 -10 4 -13 1 -10 -8 8 -19 39 -11 39 10
0 20 40 32 50 15 3 -6 -1 -7 -9 -4 -9 3 -16 1 -16 -4 0 -6 6 -12 13 -15 6 -2
4 -3 -6 -1 -19 2 -20 -24 -2 -39 6 -5 4 -7 -5 -4 -8 2 -14 10 -13 16 4 16 -14
13 -20 -3 -4 -9 2 -18 15 -22 19 -6 20 -7 4 -16 -9 -5 -13 -14 -10 -20 5 -7 2
-8 -6 -3 -10 6 -12 4 -6 -10 5 -14 4 -16 -7 -6 -11 9 -17 8 -28 -5 -11 -13
-10 -15 3 -12 16 3 18 1 18 -24 0 -9 -3 -9 -9 1 -8 12 -12 12 -25 2 -16 -13
-13 -31 5 -31 6 0 7 5 3 12 -5 7 -3 8 6 3 10 -6 10 -11 -3 -20 -9 -7 -13 -15
-9 -19 4 -4 2 -7 -3 -6 -23 5 -36 -1 -29 -12 6 -10 3 -9 -9 0 -14 12 -16 11
-14 -7 1 -12 7 -20 13 -18 7 1 13 -1 13 -5 2 -22 0 -28 -10 -28 -5 0 -7 5 -4
10 3 6 2 10 -3 10 -17 0 -22 -13 -10 -27 8 -10 8 -17 -1 -26 -10 -9 -11 -8 -5
7 5 13 4 17 -3 13 -6 -4 -17 1 -24 10 -9 10 -9 14 -2 10 8 -5 11 -1 8 13 -2
11 -1 19 3 17 4 -1 7 2 7 8 0 5 -9 11 -20 12 -14 2 -16 1 -7 -6 17 -10 17 -21
2 -31 -14 -8 -2 -36 27 -66 16 -16 16 -16 -6 -9 -20 6 -22 5 -12 -13 8 -16 6
-21 -15 -31 -14 -6 -22 -16 -18 -22 4 -8 9 -7 15 2 6 10 9 10 9 2 0 -16 -23
-29 -28 -15 -2 6 -11 8 -20 5 -13 -4 -14 -3 -4 5 8 5 13 12 13 16 -3 24 0 30
10 16 9 -12 10 -12 5 4 -6 16 -4 17 9 6 12 -10 15 -10 15 2 0 8 -6 20 -12 27
-9 10 -9 12 -1 7 6 -3 14 -2 18 4 3 5 -1 10 -10 10 -9 0 -14 4 -11 8 2 4 -5 9
-17 9 -16 2 -18 0 -8 -7 17 -10 23 -38 10 -46 -5 -3 -9 1 -9 8 0 7 -10 -1 -21
-19 -18 -29 -19 -35 -6 -53 7 -11 16 -18 18 -15 3 2 10 -5 17 -15 7 -12 8 -20
2 -20 -5 0 -10 5 -10 10 0 6 -8 10 -17 10 -15 -1 -14 -4 7 -22 14 -12 18 -19
8 -15 -9 3 -22 -1 -30 -10 -11 -14 -11 -16 4 -10 24 9 31 -8 11 -24 -14 -12
-16 -12 -9 0 6 9 5 12 -5 9 -8 -3 -13 -16 -12 -29 l3 -24 -10 23 c-6 15 -14
21 -22 16 -7 -4 -4 2 6 14 11 12 14 22 8 22 -7 0 -12 -5 -12 -11 0 -5 -4 -8
-10 -4 -5 3 -17 -6 -26 -20 -13 -20 -14 -28 -4 -40 15 -18 -1 -20 -18 -3 -8 8
-12 9 -12 1 0 -6 6 -13 13 -16 6 -2 8 -8 4 -13 -5 -5 -15 0 -24 11 -10 14 -14
15 -13 5 5 -32 0 -42 -18 -38 -11 3 -19 0 -19 -7 0 -8 7 -11 15 -7 10 3 13 1
8 -6 -4 -7 -5 -12 -2 -12 3 0 12 12 19 26 9 17 17 23 21 16 4 -7 -5 -23 -19
-38 -14 -14 -23 -29 -20 -34 3 -5 -4 -14 -15 -20 -11 -6 -18 -15 -15 -21 4 -5
11 -6 17 -3 6 4 9 1 7 -5 -8 -22 -24 -14 -41 20 -9 19 -17 30 -17 24 -1 -5 5
-22 13 -37 14 -26 12 -38 -6 -38 -5 0 -7 4 -4 8 3 5 -1 9 -8 9 -7 0 -13 -6
-13 -13 0 -7 11 -11 24 -9 13 1 26 -2 29 -6 5 -9 -9 -13 -35 -10 -7 2 -10 -2
-7 -8 4 -5 15 -9 26 -8 19 1 24 10 21 30 -1 5 4 5 10 1 7 -4 10 -3 7 2 -4 5 4
9 16 9 16 0 22 -6 22 -21 0 -22 -10 -25 -33 -11 -18 11 -16 -3 3 -24 12 -14
13 -18 2 -25 -7 -4 -10 -4 -6 0 8 10 -14 36 -25 29 -4 -3 -1 -16 8 -29 8 -13
11 -24 5 -24 -5 0 -10 5 -10 11 0 5 -5 7 -11 4 -7 -5 -4 -14 7 -26 16 -18 16
-19 1 -13 -9 3 -17 9 -18 13 0 3 -2 17 -5 31 -3 20 -2 22 7 10 8 -12 10 -12 7
-1 -2 8 -11 15 -19 17 -7 1 -21 3 -29 5 -9 2 -14 -2 -12 -10 1 -7 -3 -19 -9
-27 -9 -11 -9 -14 0 -14 7 0 9 -5 6 -11 -5 -7 -14 -4 -28 8 -15 12 -18 13 -9
2 6 -9 8 -20 4 -24 -4 -5 -2 -6 3 -2 13 7 51 -20 42 -30 -4 -4 -13 -1 -19 5
-17 17 -31 15 -24 -3 7 -19 -3 -47 -15 -40 -4 3 -6 12 -2 20 3 8 0 15 -6 15
-6 0 -10 -3 -9 -7 4 -19 -15 -41 -30 -36 -15 4 -15 3 -2 -6 11 -8 18 -7 27 5
7 10 13 12 18 4 3 -5 10 -8 15 -5 4 3 11 -2 14 -11 3 -8 10 -12 16 -9 14 8 13
26 -1 22 -6 -1 -14 4 -16 11 -3 6 0 12 7 12 6 0 8 5 4 12 -5 7 -3 8 7 2 16
-10 39 -14 39 -7 0 2 -4 12 -10 22 -8 15 -5 18 12 17 12 0 23 -8 25 -16 4 -13
3 -13 -6 0 -5 8 -13 11 -17 7 -4 -3 -2 -13 5 -21 9 -11 8 -15 -4 -20 -9 -3
-13 -11 -9 -17 4 -7 3 -9 -2 -6 -6 3 -16 -4 -23 -15 -11 -18 -11 -20 3 -15 10
4 13 1 9 -9 -5 -13 -10 -11 -29 7 -29 27 -32 14 -4 -16 13 -14 16 -22 8 -23
-7 0 -22 -3 -33 -5 -16 -4 -21 0 -22 16 -2 21 -1 21 11 4 12 -16 14 -16 20 -2
4 11 2 14 -6 9 -7 -5 -8 -3 -3 6 5 9 4 11 -3 6 -8 -5 -10 -1 -5 10 4 12 2 15
-8 12 -8 -3 -13 -11 -11 -18 2 -8 -3 -10 -15 -6 -15 6 -15 5 2 -14 19 -21 8
-29 -13 -8 -8 8 -12 9 -12 1 0 -6 6 -13 13 -16 9 -3 8 -9 -5 -23 -9 -10 -18
-26 -20 -34 -3 -16 -18 -30 -31 -30 -5 0 -6 4 -2 9 3 5 1 12 -4 15 -5 4 -8 -2
-7 -11 2 -10 9 -19 17 -19 8 -1 20 -2 27 -3 6 0 12 -6 12 -12 0 -6 -9 -8 -23
-4 -21 7 -21 7 -2 -8 25 -19 48 -11 35 13 -5 9 -6 21 -2 25 4 5 1 5 -7 0 -10
-5 -12 -4 -7 4 4 6 11 9 16 6 5 -3 11 -1 15 5 3 5 -1 10 -9 10 -9 0 -16 4 -16
9 0 6 9 8 20 6 11 -2 23 1 26 7 4 6 3 8 -3 5 -5 -3 -10 0 -10 8 0 19 0 19 25
-4 23 -20 31 -41 9 -22 -14 11 -27 5 -27 -11 0 -5 4 -7 9 -4 5 3 12 -1 15 -9
4 -13 2 -13 -14 -5 -12 7 -21 7 -25 0 -3 -5 -2 -10 3 -10 6 0 13 -7 16 -16 5
-14 4 -15 -9 -4 -15 12 -22 0 -8 -14 4 -3 8 -17 10 -29 2 -19 2 -20 -8 -4 -5
9 -15 17 -21 17 -6 0 -5 -6 3 -16 10 -12 10 -17 0 -23 -7 -5 -13 -12 -13 -17
-1 -19 -26 -45 -33 -35 -3 6 -2 11 3 11 4 0 8 14 8 30 0 17 -4 30 -9 30 -5 0
-4 7 3 15 9 10 9 15 1 15 -6 0 -11 -5 -11 -11 0 -5 -5 -7 -12 -3 -6 4 -4 -3 5
-17 26 -36 20 -48 -6 -15 -16 20 -24 24 -24 13 0 -9 4 -14 9 -11 13 8 9 -9 -7
-30 -10 -13 -11 -24 -5 -36 6 -11 5 -22 -3 -30 -10 -12 -9 -12 5 -2 9 8 19 9
22 4 3 -6 -1 -12 -9 -16 -9 -3 -14 -16 -13 -31 3 -28 13 -33 22 -9 3 8 2 12
-4 9 -6 -3 -10 1 -10 10 0 12 4 14 19 6 19 -10 31 -6 31 12 0 5 -8 6 -18 3
-16 -6 -16 -5 1 8 10 8 14 16 10 18 -4 3 -2 3 5 2 6 -2 12 0 12 4 0 5 6 16 13
26 12 16 13 16 13 -3 0 -11 -3 -18 -7 -15 -13 7 -18 -23 -6 -36 9 -10 9 -11
-2 -5 -11 6 -13 4 -8 -9 4 -10 7 -20 7 -22 0 -3 4 -3 9 1 5 3 12 1 16 -4 3 -6
-3 -8 -15 -6 -11 2 -22 0 -25 -6 -4 -5 -2 -9 3 -9 5 0 9 -13 9 -30 0 -24 -3
-27 -14 -19 -11 10 -11 15 -1 27 11 13 11 14 -1 7 -10 -6 -12 -4 -6 5 6 9 4
11 -6 5 -12 -8 -12 -6 0 8 7 9 9 17 3 17 -14 0 -25 -34 -13 -38 6 -2 9 -7 6
-12 -3 -4 2 -13 10 -20 20 -17 19 -29 -2 -25 -10 1 -13 0 -7 -2 6 -2 20 -23
32 -46 12 -23 19 -31 16 -17 -6 22 -5 23 9 12 9 -8 13 -20 10 -28 -3 -8 0 -20
6 -28 6 -7 10 -15 8 -17 -1 -2 3 1 9 8 13 15 25 7 17 -13 -3 -9 1 -14 12 -14
10 0 15 -5 12 -14 -3 -7 0 -19 6 -26 9 -10 9 -12 -4 -7 -9 3 -22 2 -28 -3 -9
-5 -4 -7 13 -7 15 0 29 3 32 8 3 5 10 9 16 9 6 0 6 -6 -2 -15 -7 -9 -10 -18
-7 -22 4 -3 9 2 13 11 3 9 10 13 16 10 5 -3 4 -12 -4 -22 -10 -12 -10 -14 0
-8 7 4 12 2 12 -4 0 -6 5 -8 12 -4 8 5 9 2 5 -9 -3 -9 -3 -16 1 -16 18 3 22
-2 10 -15 -7 -8 -17 -11 -23 -8 -5 3 -7 2 -3 -3 4 -4 3 -13 -2 -20 -11 -13 12
-13 42 0 20 8 61 -17 64 -40 1 -8 -5 -15 -13 -15 -10 0 -13 6 -9 17 4 10 4 14
0 10 -4 -4 -12 0 -19 9 -10 14 -13 14 -26 -3 -12 -16 -12 -17 2 -6 13 11 18 9
27 -11 8 -19 8 -26 -1 -30 -7 -3 1 -2 17 1 22 5 27 3 21 -7 -5 -8 -4 -11 2 -7
6 4 13 0 17 -8 6 -18 2 -19 -27 -4 -21 10 -21 10 -2 -6 23 -19 41 -14 37 10
-2 10 1 14 7 10 7 -3 8 0 5 9 -3 9 -11 16 -17 16 -6 0 -7 3 -4 7 4 3 3 11 -3
17 -6 8 -2 16 13 25 18 11 20 11 10 0 -21 -21 -15 -34 6 -15 12 11 17 25 14
34 -4 10 -3 14 1 10 4 -3 8 -13 10 -21 1 -8 8 -22 15 -31 11 -13 11 -17 -3
-22 -9 -3 -13 -11 -9 -18 4 -6 -1 -5 -10 3 -9 7 -17 10 -17 5 0 -11 20 -42 20
-31 0 4 8 3 18 -2 11 -6 24 -6 36 1 15 8 17 8 11 -2 -6 -9 -4 -12 7 -8 8 4 15
0 15 -7 0 -11 -5 -11 -20 -4 -10 6 -21 8 -24 5 -3 -3 2 -8 11 -12 9 -3 14 -10
11 -14 -3 -5 4 -11 14 -15 11 -3 23 -15 26 -26 4 -10 12 -19 18 -19 7 0 18
-10 26 -22 l14 -23 -24 20 c-13 11 -34 31 -46 45 -11 14 -24 22 -28 19 -3 -4
15 -27 41 -53 34 -35 52 -45 68 -41 11 2 15 2 8 -1 -6 -3 -10 -10 -6 -15 3 -5
-2 -19 -10 -31 -9 -12 -16 -17 -16 -10 0 19 4 27 12 25 16 -6 8 15 -8 21 -20
8 -24 8 -23 -2 3 -16 -1 -32 -8 -31 -32 5 -46 -14 -19 -24 10 -4 13 -1 10 7
-3 7 2 13 11 13 19 0 19 -11 -1 -31 -8 -9 -10 -16 -4 -16 6 0 13 7 16 15 4 8
10 13 15 10 4 -3 6 -12 2 -20 -6 -18 13 -20 23 -3 4 6 3 8 -4 4 -17 -10 -8 18
16 50 15 18 19 21 13 7 -15 -30 -14 -33 7 -27 13 4 14 3 4 -4 -11 -7 -8 -14
12 -30 14 -11 26 -24 26 -28 0 -4 -5 -3 -12 4 -17 17 -33 15 -18 -3 15 -18 37
-19 43 -2 4 9 6 9 6 -1 1 -8 -8 -16 -19 -19 -11 -3 -17 -9 -14 -14 3 -5 13 -5
24 1 16 8 18 8 14 -5 -3 -8 1 -22 10 -31 9 -8 13 -21 9 -27 -4 -6 0 -8 10 -4
12 4 14 2 10 -11 -6 -15 -5 -15 10 -3 10 8 20 11 24 8 3 -4 -2 -9 -11 -13 -22
-8 -20 -19 4 -21 11 -1 18 2 16 6 -3 4 -1 13 3 20 6 9 9 4 9 -13 0 -14 -3 -27
-7 -27 -24 -5 -50 -5 -49 0 2 20 -4 31 -14 25 -7 -5 -8 -3 -3 6 5 8 4 11 -3 6
-7 -4 -10 1 -7 14 3 13 0 18 -7 14 -7 -5 -8 -2 -3 6 5 9 4 11 -4 6 -6 -4 -11
-4 -10 1 1 4 1 15 0 23 -1 13 -2 13 -11 0 -7 -11 -10 -11 -10 -2 0 7 -5 10
-11 6 -8 -5 -6 -10 5 -16 17 -9 13 -28 -5 -28 -6 0 -7 5 -4 10 3 6 1 10 -5 10
-7 0 -10 -6 -7 -12 2 -7 11 -13 20 -13 20 0 43 -22 33 -32 -4 -4 -12 -1 -17 7
-9 13 -10 13 -6 0 2 -9 14 -14 28 -13 23 3 23 2 5 -12 -11 -8 -15 -15 -9 -15
7 0 15 5 18 10 3 6 11 10 16 10 6 0 1 -13 -11 -29 -13 -19 -17 -32 -10 -36 6
-4 10 -3 9 2 -4 15 13 43 23 37 5 -3 5 -11 0 -17 -14 -19 -23 -49 -12 -42 21
13 49 13 54 0 3 -8 -3 -19 -12 -24 -9 -6 -12 -11 -6 -11 5 0 15 5 22 12 19 19
14 -1 -8 -32 -13 -18 -17 -31 -10 -35 6 -4 9 -3 8 2 -4 15 23 54 34 47 7 -4 6
-9 -2 -14 -9 -6 -6 -10 9 -15 11 -3 21 -11 21 -17 0 -5 6 -8 14 -5 9 4 21 -5
31 -20 16 -25 16 -26 0 -20 -9 4 -19 7 -21 7 -3 0 -2 6 2 13 4 6 -1 5 -11 -5
-18 -16 -13 -39 8 -37 9 0 9 2 0 6 -7 2 -13 9 -13 14 0 5 13 3 29 -6 22 -11
32 -12 37 -3 4 7 3 8 -5 4 -6 -4 -10 -4 -9 1 1 4 -3 19 -10 33 -11 21 -11 22
0 10 17 -19 49 -25 44 -8 -1 7 -1 10 1 5 3 -4 9 -5 14 -1 5 3 9 1 9 -5 0 -5
-9 -13 -20 -16 -11 -4 -18 -11 -14 -16 4 -7 10 -7 18 0 8 6 19 3 36 -11 l25
-20 -27 16 c-15 9 -29 12 -32 7 -3 -5 9 -16 27 -25 21 -10 26 -16 14 -16 -10
0 -16 -4 -12 -10 3 -5 12 -7 19 -4 8 3 17 1 21 -5 3 -6 1 -11 -4 -11 -6 0 -11
-5 -11 -11 0 -6 7 -9 14 -6 11 4 13 1 9 -10 -4 -11 -2 -14 5 -9 11 7 17 -6 13
-27 -1 -5 8 -6 19 -2 12 4 20 2 20 -5 0 -6 -4 -8 -10 -5 -5 3 -10 -1 -10 -9 0
-20 5 -20 34 -1 19 13 23 13 23 1 0 -8 -6 -12 -15 -8 -10 3 -13 1 -8 -6 3 -6
2 -13 -4 -17 -12 -7 -4 -25 11 -25 6 0 7 4 4 10 -3 6 1 7 10 3 9 -3 13 -9 8
-12 -12 -9 -10 -28 5 -43 11 -11 13 -10 12 2 -1 8 -2 22 -1 30 1 13 3 13 10 1
6 -9 6 -22 1 -31 -6 -11 -5 -21 2 -28 9 -9 9 -12 0 -12 -7 0 -12 6 -12 13 0 8
-4 7 -11 -3 -9 -12 -10 -11 -5 5 l6 20 -16 -20 c-13 -16 -15 -16 -11 -3 3 10
2 20 -4 24 -6 4 -5 12 3 22 12 16 11 16 -6 2 -18 -14 -19 -13 -13 3 4 10 3 16
-2 12 -5 -3 -13 0 -17 6 -5 8 -3 9 5 4 10 -5 9 -2 0 13 -7 12 -17 19 -21 16
-4 -3 -5 3 -2 13 5 15 4 16 -6 3 -10 -13 -11 -13 -7 2 3 9 1 19 -6 22 -8 3 -8
5 2 5 8 1 3 10 -13 22 -17 14 -25 27 -22 38 4 11 2 11 -9 -3 -14 -19 -21 -12
-16 17 1 4 -6 10 -15 14 -13 5 -13 8 -2 15 10 7 8 8 -5 4 -12 -4 -16 -2 -11 6
5 7 3 8 -6 3 -9 -6 -11 -4 -5 6 6 11 5 11 -5 2 -7 -6 -19 -9 -28 -6 -10 5 -13
2 -8 -6 5 -7 14 -10 21 -7 8 3 19 -2 27 -11 11 -14 10 -15 -12 -9 -19 5 -17 2
8 -11 17 -9 32 -21 32 -25 0 -5 -6 -6 -12 -2 -9 5 -9 2 1 -9 8 -11 10 -22 5
-30 -5 -7 -2 -5 7 5 19 20 35 12 17 -10 -16 -19 -19 -40 -6 -49 7 -4 8 -1 3 7
-5 9 -2 10 14 5 12 -4 21 -2 21 4 0 6 -3 10 -7 10 -19 -3 -36 2 -29 8 14 14
37 11 43 -5 4 -9 20 -37 36 -60 21 -32 26 -47 18 -55 -6 -6 -11 -18 -10 -27 0
-9 4 -6 9 8 5 12 14 22 20 22 8 0 8 -6 0 -19 -9 -17 -7 -19 11 -16 15 3 19 0
15 -11 -4 -11 -2 -12 14 -4 25 13 26 13 26 -10 0 -11 -6 -20 -14 -20 -8 0 -10
5 -6 13 4 6 3 8 -1 4 -15 -13 -14 -36 1 -30 17 6 44 -14 40 -30 -1 -7 -1 -9 1
-4 10 16 20 5 17 -19 -2 -21 0 -23 12 -13 16 13 19 -2 3 -18 -17 -17 33 -59
65 -54 5 1 6 -5 3 -13 -4 -10 -1 -13 9 -9 7 3 14 1 14 -5 0 -6 -4 -12 -9 -14
-5 -2 -3 -12 6 -23 15 -20 15 -20 9 1 -5 15 -2 21 9 21 9 0 14 -6 11 -14 -9
-21 15 -51 35 -46 20 6 16 24 -4 19 -7 -1 -9 -1 -4 1 4 3 4 9 1 15 -4 6 -10 5
-15 -3 -6 -10 -9 -10 -9 -2 0 21 21 26 34 7 9 -12 15 -14 20 -6 4 7 12 12 19
12 6 0 2 -7 -9 -15 -19 -15 -19 -16 1 -13 13 2 21 -4 23 -17 2 -11 10 -27 18
-36 8 -9 11 -19 7 -24 -5 -4 -1 -6 8 -3 9 4 22 2 30 -3 8 -5 9 -9 2 -9 -17 0
-9 -31 10 -42 10 -5 23 -6 30 -2 6 4 3 -2 -8 -13 -11 -11 -24 -18 -29 -15 -4
2 -2 9 5 14 11 7 10 8 -4 4 -10 -3 -16 -2 -13 2 3 5 -1 9 -9 9 -8 0 -15 -5
-15 -11 0 -6 -5 -4 -10 4 -5 8 -6 26 -3 39 4 16 2 22 -5 17 -6 -3 -13 -2 -17
4 -3 5 1 10 10 10 9 0 13 5 10 10 -4 6 -11 7 -17 4 -7 -5 -8 -2 -3 6 5 9 4 11
-3 6 -7 -4 -12 -3 -12 2 0 13 -27 23 -45 16 -8 -4 -15 -11 -15 -17 0 -7 4 -7
12 1 17 17 33 15 19 -2 -9 -11 -9 -20 -2 -35 8 -14 8 -21 -2 -25 -6 -3 0 -3
14 0 22 5 30 0 47 -28 12 -18 35 -51 52 -72 25 -32 28 -42 17 -55 -10 -14 -10
-14 5 -3 13 10 17 10 22 0 3 -7 3 -2 -1 12 -5 22 -4 23 10 12 9 -8 13 -20 10
-28 -6 -17 13 -19 23 -2 5 7 3 8 -6 3 -8 -5 -11 -4 -6 3 3 6 2 14 -4 17 -6 4
0 15 16 27 20 16 23 23 12 29 -10 7 -11 9 0 9 7 0 10 5 6 12 -5 7 -3 8 5 4 7
-5 10 -11 7 -14 -3 -3 0 -12 6 -21 7 -9 8 -13 3 -8 -4 4 -17 0 -27 -10 -26
-23 -22 -40 5 -17 12 10 17 12 10 5 -18 -21 45 -95 67 -78 13 11 13 10 0 -7
-13 -17 -20 -35 -22 -64 -1 -7 -7 -11 -14 -8 -8 3 -16 0 -20 -7 -4 -7 -4 -9 1
-5 4 4 14 3 22 -3 10 -9 13 -8 13 0 0 7 4 10 9 7 4 -3 7 -21 5 -41 -1 -19 2
-35 7 -35 6 0 8 4 5 9 -4 5 -1 11 6 13 6 2 12 14 13 26 1 11 -2 19 -7 16 -5
-3 -7 0 -6 8 2 7 -3 12 -10 10 -8 -1 -11 2 -6 9 5 8 3 9 -7 4 -8 -5 -7 0 4 12
9 11 14 23 10 28 -5 4 -2 5 5 1 7 -4 12 -2 12 5 0 7 3 9 7 6 3 -4 -2 -15 -11
-26 -10 -11 -13 -22 -8 -25 6 -3 13 1 16 10 4 9 9 14 13 11 3 -4 0 -13 -7 -22
-7 -8 -8 -15 -2 -15 5 0 17 10 26 22 10 13 8 6 -4 -14 -12 -21 -19 -42 -15
-48 3 -5 1 -18 -4 -28 -8 -16 -6 -21 16 -31 24 -11 24 -13 9 -30 -19 -20 -20
-31 -5 -31 5 0 8 3 6 8 -3 4 1 13 9 20 13 12 18 8 15 -11 -1 -5 3 -6 9 -2 5 3
10 2 10 -3 0 -5 -8 -12 -18 -14 -10 -3 -19 -12 -19 -21 0 -9 4 -14 9 -11 5 3
6 10 3 15 -4 5 -2 9 4 9 6 0 15 -10 22 -22 9 -17 9 -20 -3 -15 -8 3 -21 1 -29
-4 -9 -5 -4 -7 16 -5 17 2 31 5 33 6 3 3 18 7 33 9 5 0 7 6 3 12 -5 8 -9 8
-14 -1 -10 -15 -21 -15 -31 2 -13 20 -11 32 4 19 23 -18 83 0 71 22 -4 7 -4 9
1 5 4 -4 15 -2 24 5 9 7 8 2 -4 -15 -11 -15 -26 -28 -33 -28 -7 0 -10 -5 -7
-10 4 -6 10 -8 14 -6 4 3 13 0 21 -6 13 -8 12 -9 -2 -5 -9 3 -19 3 -23 -1 -4
-4 -12 -7 -17 -7 -6 0 -13 -6 -15 -12 -3 -7 0 -13 7 -13 6 0 8 -5 4 -12 -4 -6
-3 -8 3 -5 5 3 17 -3 26 -14 15 -17 14 -23 -5 -20 -4 0 -5 -6 -2 -14 4 -8 10
-15 16 -15 5 0 7 4 4 9 -3 5 1 14 9 21 16 14 10 34 -7 24 -7 -5 -8 -2 -3 6 5
8 4 11 -2 7 -6 -4 -16 -1 -22 7 -9 11 -8 15 5 20 22 8 32 7 17 -2 -9 -6 -6
-11 8 -20 19 -12 20 -11 14 7 -4 13 -2 21 5 21 6 0 9 -4 6 -9 -3 -4 3 -16 13
-25 10 -10 21 -14 23 -9 3 4 3 3 2 -4 -2 -6 0 -14 4 -16 4 -2 2 -2 -5 -1 -7 2
-15 -1 -18 -6 -4 -6 0 -11 7 -11 7 -1 19 -2 27 -3 17 -1 28 -26 11 -26 -6 0
-8 5 -5 10 3 6 2 10 -4 10 -18 0 -23 -20 -7 -26 9 -3 13 -10 10 -15 -3 -5 -1
-9 4 -9 6 0 8 -9 5 -19 -4 -17 0 -20 26 -19 17 1 28 5 25 10 -3 4 0 8 6 8 8 0
9 -7 5 -17 -4 -10 -9 -26 -11 -35 -2 -10 -6 -27 -9 -38 -14 -57 -14 -62 -1
-51 9 7 19 6 36 -6 13 -9 20 -11 16 -5 -4 7 -2 12 4 12 6 0 10 -8 8 -17 -1
-10 1 -24 5 -30 5 -8 4 -13 -2 -13 -6 0 -11 -5 -11 -11 0 -8 6 -7 17 2 15 12
16 12 10 -4 -4 -11 -1 -20 9 -24 13 -5 13 -8 2 -15 -10 -8 -10 -9 2 -5 18 5
70 -23 70 -38 0 -6 -6 -17 -12 -25 -11 -12 -10 -12 5 -1 9 8 20 11 23 8 3 -3
-3 -12 -15 -19 -27 -16 -26 -25 2 -38 20 -10 20 -10 5 3 -17 13 -17 15 3 33
21 19 22 19 15 -3 -8 -25 3 -30 22 -11 16 16 16 -4 0 -21 -8 -9 -8 -11 -2 -8
15 9 26 -17 13 -30 -6 -6 -3 -10 8 -10 23 0 45 16 37 28 -3 5 0 9 5 9 13 0 10
22 -4 32 -18 13 -28 8 -15 -7 7 -9 10 -18 6 -22 -3 -3 -6 -1 -6 5 0 6 -6 10
-12 8 -7 -1 -9 -1 -5 2 4 2 3 10 -4 18 -6 8 -15 11 -20 8 -5 -3 -9 -1 -9 4 0
6 7 12 15 16 8 3 15 11 15 17 0 8 -7 6 -18 -4 -21 -19 -33 -13 -25 11 4 15 3
15 -6 2 -9 -13 -11 -13 -12 0 -1 8 -1 18 0 22 0 4 -5 6 -12 4 -6 -1 -9 -1 -4
1 15 9 6 22 -12 18 -16 -3 -19 1 -15 23 3 18 1 22 -4 14 -8 -11 -10 -11 -15 2
-3 8 -2 18 3 21 13 8 13 25 1 25 -5 0 -13 -9 -16 -20 -8 -26 -22 -18 -20 12 2
25 -15 49 -29 40 -5 -3 -6 1 -1 8 5 9 4 11 -4 6 -7 -5 -10 -2 -9 6 2 7 -2 12
-9 11 -6 -1 -10 5 -9 15 2 9 8 17 14 16 33 -3 34 -4 22 -19 -7 -8 -8 -15 -2
-15 5 0 17 10 27 22 16 22 16 22 1 -4 -20 -34 -20 -44 -1 -28 21 17 32 -14 14
-37 -12 -14 -11 -15 8 -9 12 4 24 2 27 -3 4 -6 14 -8 24 -5 9 3 6 -2 -8 -10
-14 -8 -22 -16 -17 -17 12 -2 26 -6 35 -9 4 -1 11 -1 17 0 5 1 7 -2 3 -6 -4
-4 0 -13 10 -21 10 -9 11 -12 2 -7 -8 4 -23 14 -32 22 -11 9 -18 11 -18 4 0
-6 8 -17 19 -24 17 -12 21 -18 21 -35 0 -5 5 -1 11 7 9 13 10 13 8 0 -3 -29 1
-41 11 -35 6 4 7 12 3 18 -4 7 1 6 11 -2 9 -8 15 -20 12 -28 -4 -9 7 -19 31
-29 28 -12 33 -18 22 -25 -8 -5 -12 -9 -9 -10 3 0 16 -2 29 -5 20 -4 22 -2 11
11 -11 13 -10 14 4 9 12 -4 15 -13 10 -28 -6 -17 -5 -19 8 -9 11 10 17 10 26
1 9 -9 12 -9 12 0 0 6 -8 16 -17 21 -10 6 -13 11 -6 11 6 0 15 -5 18 -11 5 -7
14 -3 27 11 16 18 22 19 35 8 14 -11 15 -10 9 10 -5 14 -3 22 4 22 6 0 9 -4 6
-9 -3 -5 0 -14 8 -20 10 -9 20 -5 45 18 17 16 31 25 31 20 0 -5 4 -9 9 -9 4 0
8 10 7 21 -1 28 32 34 57 12 17 -16 17 -16 11 0 -3 9 -10 17 -15 17 -4 0 -6 8
-3 18 5 14 4 14 -5 2 -5 -8 -12 -12 -15 -10 -2 3 11 22 30 42 19 21 34 34 34
30 0 -4 9 7 20 23 11 17 25 30 32 30 7 0 13 5 13 10 0 6 16 25 35 44 30 29 35
31 45 17 19 -25 27 -19 10 8 -10 15 -12 27 -6 30 5 4 13 -3 16 -15 4 -11 9
-18 12 -15 4 3 13 0 22 -7 14 -10 14 -10 4 4 -10 12 -10 18 -1 27 9 9 9 15 -1
25 -10 10 -11 8 -5 -7 6 -15 4 -17 -6 -11 -9 5 -11 4 -6 -3 4 -7 2 -12 -3 -12
-21 0 -11 28 21 61 18 19 31 39 29 44 -1 6 1 7 4 3 4 -4 16 4 27 17 11 14 25
25 31 25 7 0 1 -9 -13 -20 -14 -11 -22 -20 -18 -20 5 0 -2 -11 -14 -25 -11
-13 -26 -22 -31 -18 -6 4 -7 1 -2 -7 5 -9 4 -11 -3 -6 -7 4 -12 5 -12 2 0 -3
9 -10 20 -16 15 -8 18 -8 14 3 -4 12 30 52 51 59 6 2 10 8 10 15 0 6 4 15 8
19 4 4 7 2 7 -4 0 -7 5 -12 11 -12 8 0 8 5 -1 15 -10 12 -9 16 2 20 8 3 19 5
24 3 5 -2 9 1 9 7 0 15 -34 13 -40 -2 -2 -8 -10 -11 -16 -8 -6 5 -4 12 8 20
10 7 22 11 27 7 5 -3 7 1 5 9 -3 8 6 25 20 39 13 14 20 18 16 10 -5 -8 -5 -12
0 -8 4 4 14 3 22 -4 7 -6 16 -8 20 -4 3 3 1 6 -6 6 -7 0 -9 5 -6 10 4 6 11 8
16 5 17 -11 31 6 18 21 -14 17 2 19 21 2 13 -11 13 -11 3 2 -17 18 -16 30 1
30 7 0 19 7 26 15 7 8 17 15 23 15 5 0 2 -10 -9 -22 l-19 -23 23 19 c31 27 12
43 -24 20 -54 -33 -65 -46 -53 -61 14 -16 -2 -17 -20 0 -10 8 -12 8 -7 0 3 -6
2 -14 -4 -18 -5 -3 -10 -1 -10 6 0 14 56 69 70 69 6 0 9 4 6 9 -3 5 1 14 9 21
12 10 22 10 43 1 l27 -12 -23 19 -23 18 45 47 c24 26 47 43 50 38 10 -15 -6
-43 -20 -37 -7 3 -16 0 -20 -7 -4 -7 -4 -9 1 -5 4 4 14 3 22 -3 10 -9 13 -8
13 0 0 7 4 9 10 6 6 -4 7 1 3 12 -6 16 -5 17 13 3 18 -14 18 -14 5 2 -18 24 3
55 26 36 11 -9 18 -8 30 5 16 15 15 17 -16 28 -24 9 -29 14 -19 20 7 5 18 9
23 9 6 0 3 -5 -5 -10 -8 -5 -10 -10 -4 -10 6 0 17 7 24 15 10 12 16 13 27 4
11 -10 12 -9 7 5 -7 19 -16 20 -32 4 -22 -22 -12 6 12 37 18 23 27 27 36 19 8
-8 9 -14 1 -18 -6 -4 -11 -15 -11 -24 0 -12 4 -10 14 8 11 21 11 28 -3 43 -8
10 -11 18 -6 17 22 -5 35 1 35 13 0 18 35 49 44 40 4 -5 6 -1 5 7 -4 16 34 60
51 60 5 0 9 3 7 8 -2 7 6 12 24 12 5 0 8 -4 5 -8 -2 -4 5 -9 17 -9 18 -2 19 0
6 7 -25 15 -12 55 31 94 21 19 35 38 32 42 -4 4 -1 4 6 0 6 -4 12 -4 12 1 1 4
15 24 32 43 17 19 28 30 25 25 -3 -6 1 -19 9 -30 8 -10 14 -14 14 -8 0 7 -5
15 -10 18 -14 8 16 58 56 95 23 21 35 25 43 17 8 -8 14 -8 23 1 9 9 9 15 -1
25 -10 10 -11 9 -6 -6 4 -10 2 -17 -4 -17 -25 0 -7 31 53 88 35 34 61 64 58
67 -3 3 0 5 6 5 24 0 21 -20 -4 -33 -17 -9 -23 -17 -15 -21 6 -4 11 -2 11 5 0
7 3 9 7 6 11 -12 32 27 23 44 -12 21 53 88 65 68 5 -7 4 -10 -2 -6 -6 4 -10
-1 -9 -11 0 -10 -6 -16 -16 -16 -24 2 -23 -1 6 -20 23 -15 25 -15 21 3 -4 22
22 64 36 56 5 -4 9 -1 9 4 0 6 -4 11 -10 11 -20 0 -10 29 18 50 15 12 27 25
27 28 1 18 17 30 32 25 9 -4 14 -2 10 3 -6 11 38 64 53 64 6 0 9 3 8 8 -2 4
40 51 93 105 64 66 100 96 111 92 8 -3 21 1 28 10 8 10 9 15 1 15 -6 0 -11 -5
-11 -11 0 -6 -5 -9 -11 -7 -6 2 -9 8 -7 13 2 6 6 9 10 8 5 -2 8 1 8 6 0 12 44
55 59 59 7 1 21 -3 30 -10 14 -12 15 -11 2 5 -15 19 -9 22 19 7 16 -9 18 -8
14 5 -4 9 -9 13 -12 11 -3 -3 -11 -1 -19 5 -9 9 -13 8 -13 0 0 -6 -5 -11 -11
-11 -8 0 -8 4 0 14 6 7 22 12 36 11 16 -2 26 3 30 15 3 11 11 18 18 16 7 -1 9
-1 4 1 -4 3 -4 10 -1 16 4 7 -6 -1 -21 -16 -15 -16 -29 -26 -32 -23 -3 3 11
22 31 42 20 20 36 41 36 46 0 4 5 8 11 8 16 0 39 26 31 35 -4 5 -1 5 6 1 7 -4
12 -1 12 7 0 17 27 30 43 20 6 -4 8 0 4 10 -8 22 27 65 38 47 5 -8 4 -11 -2
-7 -6 4 -10 -1 -9 -11 0 -10 -5 -16 -13 -14 -11 2 -12 0 -3 -11 7 -8 10 -17 7
-20 -3 -4 -2 -4 2 -1 5 3 9 10 9 15 1 5 2 12 3 16 0 4 8 -2 17 -13 8 -10 12
-13 8 -5 -4 8 -9 28 -11 46 -3 27 4 38 47 78 28 26 56 47 63 47 8 0 7 -4 -3
-10 -13 -8 -1 -8 49 -1 3 1 0 6 -7 13 -7 7 -12 17 -12 23 1 5 10 -1 21 -15 12
-14 20 -18 19 -10 -4 27 0 41 10 35 6 -3 10 -2 10 4 0 5 -9 9 -19 8 -12 -1
-17 -6 -13 -16 3 -9 1 -12 -7 -7 -13 8 -11 37 4 48 5 4 20 0 32 -8 28 -18 31
-4 4 15 -14 11 -16 17 -8 26 7 7 18 10 26 7 10 -4 13 -1 8 12 -5 12 -3 16 5
13 7 -2 12 -10 11 -16 -2 -6 2 -11 7 -11 6 0 10 5 10 12 0 9 3 9 12 0 15 -15
28 -15 28 -1 0 5 -4 8 -9 4 -5 -3 -12 -1 -16 5 -4 6 -10 8 -15 5 -4 -3 -10 1
-13 9 -11 28 59 67 75 42 5 -7 8 -4 8 8 0 12 -5 16 -15 12 -8 -3 -15 -1 -15 5
0 5 7 12 15 15 8 4 15 10 15 14 0 12 73 85 83 82 4 -1 6 2 3 7 -8 12 20 34 33
26 6 -3 9 0 6 7 -3 7 26 46 65 87 39 40 69 76 66 78 -2 3 -77 5 -165 6 -139 0
-158 2 -143 14 9 8 11 11 3 7 -8 -4 5 17 30 48 24 30 47 53 52 51 4 -2 7 1 7
7 0 6 5 8 10 5 6 -4 10 -3 9 2 -4 22 2 35 15 30 9 -4 13 -1 10 6 -4 12 4 23
84 112 37 42 56 74 35 62 -10 -6 -167 -19 -240 -21 -29 0 -53 -3 -53 -6 0 -3
-21 -6 -47 -7 -27 -1 -79 -5 -118 -9 -38 -4 -87 -8 -107 -8 -21 0 -38 -3 -38
-6 0 -3 -29 -6 -64 -8 l-64 -3 -48 98 c-25 54 -59 125 -74 158 -15 33 -37 83
-50 110 -12 28 -41 91 -65 140 -23 50 -52 113 -65 140 -13 28 -39 84 -58 125
-20 41 -36 77 -37 80 -3 8 -47 103 -104 223 -28 60 -51 110 -51 112 0 3 -46
103 -125 270 -26 55 -48 106 -48 113 0 6 -4 12 -8 12 -4 0 -11 9 -14 21 -4 11
-19 46 -33 77 -15 32 -27 59 -27 62 -1 3 -17 38 -37 78 -20 39 -34 72 -31 72
3 0 1 6 -5 13 -5 6 -36 68 -67 137 -32 69 -80 172 -106 229 -27 57 -49 105
-49 107 0 2 -29 65 -65 140 -36 75 -65 138 -65 140 0 3 -23 53 -51 112 -45 94
-68 146 -74 162 -1 3 -16 35 -33 72 -18 37 -32 72 -32 78 0 5 -4 10 -10 10 -5
0 -10 6 -10 13 0 8 -14 42 -31 78 -17 35 -45 93 -61 129 -31 68 -44 95 -127
273 -28 60 -51 115 -51 122 0 7 -7 18 -15 25 -8 7 -15 16 -15 21 0 9 -29 74
-101 227 -27 56 -58 125 -70 152 -26 60 -39 64 -40 13z m-9 -386 c0 -5 -7 -4
-15 3 -13 11 -14 10 -9 -3 6 -16 -5 -17 -39 -2 -17 7 -17 8 0 20 18 14 63 1
63 -18z m-115 -116 c-2 -9 -4 -17 -5 -18 -2 -2 -3 -7 -4 -13 -2 -21 -21 -9
-20 13 2 33 3 34 18 34 7 0 12 -7 11 -16z m76 -54 c-10 -9 -11 -8 -5 6 3 10 9
15 12 12 3 -3 0 -11 -7 -18z m-95 -23 c-10 -7 -23 -11 -27 -8 -17 10 -9 19 18
21 26 1 26 0 9 -13z m134 12 c0 -3 -4 -8 -10 -11 -5 -3 -10 -1 -10 4 0 6 5 11
10 11 6 0 10 -2 10 -4z m-33 -28 c-3 -8 -6 -5 -6 6 -1 11 2 17 5 13 3 -3 4
-12 1 -19z m33 -2 c0 -2 -8 -10 -17 -17 -16 -13 -17 -12 -4 4 13 16 21 21 21
13z m-45 -136 c3 -5 1 -10 -4 -10 -6 0 -11 5 -11 10 0 6 2 10 4 10 3 0 8 -4
11 -10z m25 -76 c0 -8 -19 -13 -24 -6 -3 5 1 9 9 9 8 0 15 -2 15 -3z m-7 -39
c-3 -9 -8 -14 -10 -11 -3 3 -2 9 2 15 9 16 15 13 8 -4z m-79 -72 c-9 -7 -21
-10 -26 -7 -14 9 1 23 23 21 19 -1 19 -2 3 -14z m30 -11 c2 -4 -5 -9 -17 -9
-17 -2 -19 0 -7 7 18 12 18 12 24 2z m66 2 c0 -8 -19 -13 -24 -6 -3 5 1 9 9 9
8 0 15 -2 15 -3z m-30 -144 c0 -5 -2 -10 -4 -10 -3 0 -8 5 -11 10 -3 6 -1 10
4 10 6 0 11 -4 11 -10z m-22 -85 c-3 -3 -9 2 -12 12 -6 14 -5 15 5 6 7 -7 10
-15 7 -18z m-24 -1 c5 -14 4 -15 -9 -4 -17 14 -19 20 -6 20 5 0 12 -7 15 -16z
m0 -109 c-4 -8 -8 -15 -10 -15 -2 0 -4 7 -4 15 0 8 4 15 10 15 5 0 7 -7 4 -15z
m-34 -130 c0 -8 -4 -17 -10 -20 -15 -9 -12 -25 6 -25 8 0 12 5 9 10 -3 6 -2
10 3 10 5 0 9 -15 8 -34 0 -19 -5 -32 -9 -29 -5 3 -6 11 -3 19 3 8 -1 14 -10
14 -8 0 -13 -4 -9 -9 3 -5 2 -12 -3 -15 -4 -2 -8 19 -7 49 0 38 3 51 12 48 7
-3 13 -11 13 -18z m46 3 c4 -7 3 -8 -4 -4 -7 4 -12 2 -12 -5 0 -7 -3 -10 -6
-6 -6 5 3 27 11 27 2 0 7 -5 11 -12z m-1475 -45 c13 -16 12 -17 -3 -4 -10 7
-18 15 -18 17 0 8 8 3 21 -13z m-264 -15 c7 -5 14 -5 18 2 3 5 14 10 23 10 10
0 13 -3 7 -8 -14 -10 -15 -44 -2 -39 7 2 19 -6 29 -17 10 -12 17 -16 18 -10 0
5 -10 21 -22 34 -18 19 -19 22 -5 17 11 -4 20 -1 23 8 4 8 11 15 16 15 6 0 5
-6 -2 -15 -8 -9 -9 -15 -2 -15 6 0 14 5 17 10 3 6 11 10 18 10 6 0 1 -7 -11
-16 -12 -8 -27 -12 -32 -9 -6 3 -10 2 -10 -4 0 -21 21 -22 46 -2 15 12 32 21
38 21 6 0 2 -6 -9 -12 -29 -15 -65 -50 -65 -61 0 -5 7 -4 15 3 8 7 15 9 16 4
0 -5 3 -1 7 8 6 15 10 13 24 -12 9 -16 14 -29 10 -29 -20 3 -32 -2 -26 -12 5
-8 1 -8 -14 0 -12 6 -24 16 -28 22 -4 8 -9 7 -15 -2 -7 -12 -9 -12 -9 0 0 11
-5 10 -20 -4 -11 -10 -17 -22 -13 -28 4 -6 0 -8 -10 -4 -9 3 -19 2 -23 -4 -4
-7 -12 -5 -23 5 -13 12 -20 13 -29 4 -9 -9 -15 -9 -24 0 -9 9 -9 15 0 24 9 9
8 16 -3 28 -14 15 -13 19 5 35 11 10 20 22 20 26 0 10 -36 6 -46 -4 -4 -4 -14
-7 -23 -7 -14 0 -14 2 -1 11 12 8 10 9 -7 4 -12 -3 -24 -2 -26 3 -3 4 17 9 45
10 28 0 52 3 54 5 8 7 39 4 51 -5z m627 -4 c3 -8 2 -12 -4 -9 -6 3 -10 10 -10
16 0 14 7 11 14 -7z m-757 -28 c38 -19 44 -20 41 -5 -2 6 5 13 16 14 17 3 17
2 -2 -18 -11 -12 -18 -27 -15 -33 2 -6 -3 -17 -12 -24 -12 -10 -18 -10 -30 0
-9 7 -13 15 -10 18 2 3 11 -1 19 -7 11 -9 16 -9 22 0 4 7 3 9 -4 5 -6 -3 -13
-2 -17 4 -3 5 -1 10 4 10 6 0 11 5 11 12 0 6 -3 8 -7 5 -3 -4 -16 1 -27 10
-21 18 -21 18 -2 -4 11 -13 15 -23 9 -23 -15 0 -50 45 -45 59 3 8 7 9 11 4 3
-6 20 -18 38 -27z m513 19 c-7 -8 -16 -13 -20 -10 -5 3 -10 0 -12 -7 -2 -6
-15 -12 -29 -14 -13 -1 -18 0 -11 3 10 4 10 8 0 21 -10 14 -8 13 8 -1 19 -16
22 -16 28 -2 3 9 10 14 15 10 5 -3 12 -1 16 5 3 5 9 10 12 10 3 0 0 -7 -7 -15z
m59 -2 c-7 -10 -14 -19 -15 -21 -1 -2 -4 4 -8 13 -3 9 -2 13 3 10 5 -3 12 -1
16 5 3 5 9 10 12 10 3 0 -1 -8 -8 -17z m55 1 c3 -8 2 -12 -4 -9 -6 3 -10 10
-10 16 0 14 7 11 14 -7z m73 1 c0 -8 -4 -12 -9 -9 -5 3 -6 10 -3 15 9 13 12
11 12 -6z m-287 -10 c11 -13 10 -14 -4 -9 -9 3 -16 10 -16 15 0 13 6 11 20 -6z
m450 9 c0 -8 -19 -13 -24 -6 -3 5 1 9 9 9 8 0 15 -2 15 -3z m-200 -24 c0 -5
-4 -10 -10 -10 -5 0 -10 5 -10 10 0 6 5 10 10 10 6 0 10 -4 10 -10z m111 -7
c13 -17 13 -17 -6 -3 -11 8 -22 16 -24 17 -2 2 0 3 6 3 6 0 17 -8 24 -17z
m1047 -3 c-1 -3 4 -16 11 -30 11 -22 10 -23 -2 -8 -8 10 -17 15 -20 12 -3 -3
-10 3 -16 14 -9 16 -7 19 10 18 10 0 18 -3 17 -6z m56 -12 c-3 -4 -11 -5 -19
-1 -21 7 -19 12 4 10 11 0 18 -5 15 -9z m-1054 -32 c0 -2 -7 -7 -16 -10 -8 -3
-12 -2 -9 4 6 10 25 14 25 6z m985 -16 c-4 -11 -2 -20 4 -20 6 0 11 5 11 12 0
6 3 8 6 5 4 -4 2 -13 -4 -20 -7 -8 -10 -17 -7 -21 3 -3 0 -2 -6 3 -15 12 -20
61 -7 61 5 0 6 -9 3 -20z m-975 -10 c-8 -5 -22 -9 -30 -9 -10 0 -8 3 5 9 27
12 43 12 25 0z m-610 -20 c6 -11 8 -20 6 -20 -3 0 -10 9 -16 20 -6 11 -8 20
-6 20 3 0 10 -9 16 -20z m1655 0 c4 -6 1 -9 -7 -8 -7 2 -12 -3 -10 -10 1 -8
-2 -11 -8 -7 -8 5 -7 11 1 21 14 17 16 17 24 4z m-1068 -42 c-3 -8 -6 -5 -6 6
-1 11 2 17 5 13 3 -3 4 -12 1 -19z m1008 4 c-3 -3 -11 0 -18 7 -9 10 -8 11 6
5 10 -3 15 -9 12 -12z m40 -10 c-3 -3 -11 0 -18 7 -9 10 -8 11 6 5 10 -3 15
-9 12 -12z m40 0 c-3 -3 -11 0 -18 7 -9 10 -8 11 6 5 10 -3 15 -9 12 -12z
m-1158 1 c-4 -3 -2 -12 4 -20 6 -7 8 -13 5 -13 -4 0 -1 -10 6 -22 7 -13 11
-26 10 -30 -1 -5 3 -8 8 -8 6 0 10 -5 10 -11 0 -5 -5 -7 -11 -3 -7 4 -10 1 -7
-7 3 -8 14 -13 24 -11 15 2 16 1 4 -7 -9 -6 -18 -6 -26 0 -8 7 -14 6 -19 -1
-3 -5 -1 -10 4 -10 19 0 12 -18 -9 -25 -11 -4 -18 -11 -14 -16 3 -5 9 -7 13
-5 4 3 8 -1 8 -9 0 -11 -4 -12 -14 -4 -9 8 -13 8 -13 1 0 -6 5 -14 11 -18 7
-4 8 -9 0 -17 -7 -7 -15 -6 -26 3 -11 9 -15 9 -15 1 0 -6 6 -14 13 -17 8 -3
14 -12 14 -21 0 -13 -3 -12 -14 3 -8 11 -19 19 -25 19 -6 0 -13 7 -15 15 -4
12 -3 12 5 2 7 -11 11 -10 17 5 12 26 12 37 1 45 -7 4 0 18 16 35 20 21 26 36
23 61 -1 19 -7 38 -13 44 -7 7 -5 16 6 29 9 10 18 19 21 19 2 0 1 -3 -2 -7z
m1083 -13 c-18 -12 -30 -13 -30 -2 0 4 10 9 22 9 18 2 20 0 8 -7z m-997 -30
c3 -11 1 -18 -4 -14 -5 3 -9 12 -9 20 0 20 7 17 13 -6z m1037 6 c-4 -4 -16 -4
-26 2 -16 9 -14 10 8 9 15 -1 23 -6 18 -11z m-43 -12 c-3 -3 -12 -4 -19 -1 -8
3 -5 6 6 6 11 1 17 -2 13 -5z m20 -26 c0 -13 -1 -17 -4 -10 -3 6 -9 10 -14 6
-5 -3 -9 -1 -9 5 0 5 6 12 13 14 6 3 12 6 12 6 1 1 1 -9 2 -21z m-1032 -16
c-3 -3 -11 0 -18 7 -9 10 -8 11 6 5 10 -3 15 -9 12 -12z m1012 -8 c-3 -3 -12
-4 -19 -1 -8 3 -5 6 6 6 11 1 17 -2 13 -5z m23 -14 c0 -5 -5 -10 -11 -10 -5 0
-7 5 -4 10 3 6 8 10 11 10 2 0 4 -4 4 -10z m35 -19 c-9 -8 -36 -10 -30 -2 2 4
11 8 20 8 8 0 13 -3 10 -6z m-57 -8 c-10 -2 -18 -9 -18 -15 0 -6 -3 -9 -6 -5
-10 10 6 27 24 26 15 -1 15 -2 0 -6z m2 -42 c0 -6 -5 -13 -12 -17 -6 -4 -8 -3
-4 4 3 5 0 13 -6 15 -8 3 -6 6 5 6 9 1 17 -3 17 -8z m35 -33 c-4 -18 -11 -37
-16 -43 -6 -6 -6 3 1 20 6 17 11 31 11 33 -3 8 0 22 4 22 3 0 3 -15 0 -32z
m-48 -12 c-3 -7 0 -19 6 -25 8 -8 8 -11 0 -11 -6 0 -13 6 -16 13 -4 13 2 37
10 37 3 0 3 -6 0 -14z m13 -81 c0 -5 -5 -3 -10 5 -5 8 -10 20 -10 25 0 6 5 3
10 -5 5 -8 10 -19 10 -25z m-2 -55 c15 0 15 -2 2 -10 -15 -9 -30 4 -29 25 0 6
3 4 6 -2 2 -7 12 -13 21 -13z m-1154 -5 c3 -8 2 -14 -2 -14 -28 4 -34 -1 -21
-18 10 -12 11 -15 1 -9 -14 8 -42 -10 -42 -26 0 -6 7 -5 15 2 9 7 18 10 22 7
3 -4 -2 -9 -11 -13 -9 -3 -13 -11 -9 -18 4 -6 -1 -5 -10 3 -22 18 -22 3 1 -23
17 -21 17 -21 -5 -2 -14 12 -32 17 -48 13 -17 -3 -23 -1 -17 5 5 5 17 11 26
12 17 2 36 23 36 38 0 4 -10 5 -22 3 -16 -3 -19 -2 -11 6 6 6 9 17 7 23 -3 8
8 12 36 11 22 -1 40 3 40 7 0 13 7 9 14 -7z m1154 -50 c-3 -3 -9 2 -12 12 -6
14 -5 15 5 6 7 -7 10 -15 7 -18z m-14 -11 c3 -8 2 -12 -4 -9 -6 3 -10 10 -10
16 0 14 7 11 14 -7z m42 -6 c4 -7 3 -8 -4 -4 -7 4 -12 2 -12 -5 0 -7 -3 -10
-6 -6 -6 5 3 27 11 27 2 0 7 -5 11 -12z m-11 -68 c-3 -5 -16 -10 -28 -9 -20 1
-20 2 3 9 14 4 26 8 28 9 2 1 0 -3 -3 -9z m-1255 -32 c0 -5 -4 -6 -10 -3 -5 3
-11 1 -11 -4 -1 -6 -2 -16 -3 -22 0 -7 -10 -15 -21 -19 -19 -7 -19 -7 0 -19
14 -9 15 -11 3 -7 -26 8 -44 -20 -27 -41 10 -11 10 -14 2 -9 -8 4 -13 2 -13
-6 0 -10 -2 -10 -9 1 -5 8 -7 21 -4 30 3 11 1 11 -7 -2 -7 -10 -9 -21 -6 -24
3 -4 0 -13 -7 -21 -10 -13 -8 -14 11 -8 14 5 22 3 22 -4 0 -6 -4 -9 -9 -6 -5
3 -12 -5 -15 -19 -4 -14 -11 -25 -17 -25 -7 0 -6 -6 2 -17 12 -15 12 -16 -1
-8 -8 5 -21 17 -28 27 -7 10 -19 15 -25 12 -7 -4 -8 -3 -4 2 5 5 12 9 15 10 4
0 15 4 24 8 17 8 17 9 0 25 -10 9 -12 12 -5 8 18 -13 37 1 24 17 -8 9 -6 18 8
30 11 10 17 24 14 32 -3 8 0 14 7 14 9 0 9 4 -1 17 -8 9 -9 14 -3 10 6 -4 18
1 27 11 17 18 67 26 67 10z m1240 -12 c0 -3 -4 -8 -10 -11 -5 -3 -10 -1 -10 4
0 6 5 11 10 11 6 0 10 -2 10 -4z m0 -36 c-6 -11 -16 -20 -23 -20 -7 0 -6 4 3
10 8 5 11 10 5 10 -5 0 -3 5 5 10 21 14 22 13 10 -10z m54 12 c3 -5 -1 -9 -9
-9 -8 0 -12 4 -9 9 3 4 7 8 9 8 2 0 6 -4 9 -8z m-49 -42 c-3 -5 -12 -10 -18
-10 -7 0 -6 4 3 10 19 12 23 12 15 0z m31 -16 c1 -9 0 -13 -3 -10 -4 3 -13 0
-22 -6 -12 -10 -12 -7 2 8 9 11 15 24 12 27 -3 4 -2 5 2 2 4 -3 8 -13 9 -21z
m-1316 2 c0 -3 -4 -8 -10 -11 -5 -3 -10 -1 -10 4 0 6 5 11 10 11 6 0 10 -2 10
-4z m1276 -52 c3 -16 2 -26 -1 -23 -3 4 -8 19 -11 35 -3 16 -2 26 1 23 3 -4 8
-19 11 -35z m42 1 c-3 -3 -9 2 -12 12 -6 14 -5 15 5 6 7 -7 10 -15 7 -18z m2
-31 c0 -8 -19 -13 -24 -6 -3 5 1 9 9 9 8 0 15 -2 15 -3z m-37 -18 c6 -15 -17
-16 -30 -1 -4 4 -2 5 5 1 6 -4 12 -2 12 3 0 15 7 14 13 -3z m-2 -55 c-6 -10
-8 -21 -6 -25 3 -3 0 -2 -7 3 -8 8 -8 14 2 26 17 21 23 19 11 -4z m-1366 -1
c3 -5 1 -10 -4 -10 -6 0 -11 5 -11 10 0 6 2 10 4 10 3 0 8 -4 11 -10z m1405
-44 c0 -3 -4 -8 -10 -11 -5 -3 -10 -1 -10 4 0 6 5 11 10 11 6 0 10 -2 10 -4z
m35 -6 c3 -5 1 -10 -4 -10 -6 0 -11 5 -11 10 0 6 2 10 4 10 3 0 8 -4 11 -10z
m-71 -22 c-3 -5 0 -16 8 -25 9 -12 9 -15 1 -9 -22 12 -34 43 -18 43 8 0 12 -4
9 -9z m-10 -44 c3 -8 2 -12 -4 -9 -6 3 -10 10 -10 16 0 14 7 11 14 -7z m60 8
c3 -5 -1 -9 -9 -9 -8 0 -12 4 -9 9 3 4 7 8 9 8 2 0 6 -4 9 -8z m-57 -67 c0 -8
-4 -12 -9 -9 -4 3 -8 9 -8 15 0 5 4 9 8 9 5 0 9 -7 9 -15z m-1462 -35 c-3 -5
-12 -10 -18 -10 -7 0 -6 4 3 10 19 12 23 12 15 0z m1501 -3 c4 -3 -3 -5 -14
-2 -13 2 -26 -3 -32 -13 -5 -9 -10 -12 -10 -6 0 25 38 40 56 21z m-1516 -21
c0 -2 -7 -7 -16 -10 -8 -3 -12 -2 -9 4 6 10 25 14 25 6z m1476 -60 c0 -25 -3
-43 -6 -41 -5 3 -6 72 -1 83 4 10 7 -4 7 -42z m44 30 c0 -2 -7 -7 -16 -10 -8
-3 -12 -2 -9 4 6 10 25 14 25 6z m13 -61 c-7 -21 -12 -19 -10 4 0 11 5 18 9
15 4 -3 5 -11 1 -19z m0 -60 c-3 -9 -8 -14 -10 -11 -3 3 -2 9 2 15 9 16 15 13
8 -4z m-1673 -19 c0 -3 -4 -8 -10 -11 -5 -3 -10 -1 -10 4 0 6 5 11 10 11 6 0
10 -2 10 -4z m1631 -39 c-10 -9 -11 -8 -5 6 3 10 9 15 12 12 3 -3 0 -11 -7
-18z m43 7 c3 -8 2 -12 -4 -9 -6 3 -10 10 -10 16 0 14 7 11 14 -7z m-34 -50
c0 -8 -19 -13 -24 -6 -3 5 1 9 9 9 8 0 15 -2 15 -3z m1 -41 c13 -16 12 -17 -3
-4 -17 13 -22 21 -14 21 2 0 10 -8 17 -17z m-1661 -37 c0 -2 -7 -9 -15 -16
-13 -11 -14 -10 -9 4 5 14 24 23 24 12z m1700 0 c0 -2 -7 -7 -16 -10 -8 -3
-12 -2 -9 4 6 10 25 14 25 6z m-50 -42 c0 -8 -19 -13 -24 -6 -3 5 1 9 9 9 8 0
15 -2 15 -3z m9 -37 c8 -10 7 -14 -2 -14 -8 0 -14 6 -14 14 0 7 1 13 2 13 2 0
8 -6 14 -13z m52 -14 c13 -16 12 -17 -3 -4 -17 13 -22 21 -14 21 2 0 10 -8 17
-17z m-1770 -16 c-10 -9 -11 -8 -5 6 3 10 9 15 12 12 3 -3 0 -11 -7 -18z
m1703 -15 c3 -5 -1 -9 -9 -9 -8 0 -12 4 -9 9 3 4 7 8 9 8 2 0 6 -4 9 -8z
m-1779 -42 c3 -5 1 -10 -4 -10 -6 0 -11 5 -11 10 0 6 2 10 4 10 3 0 8 -4 11
-10z m1775 -20 c0 -5 -2 -10 -4 -10 -3 0 -8 5 -11 10 -3 6 -1 10 4 10 6 0 11
-4 11 -10z m4 -38 c3 -5 -1 -9 -9 -9 -8 0 -12 4 -9 9 3 4 7 8 9 8 2 0 6 -4 9
-8z m6 -38 c0 -8 -19 -13 -24 -6 -3 5 1 9 9 9 8 0 15 -2 15 -3z m4 -102 c3 -5
-1 -9 -9 -9 -8 0 -12 4 -9 9 3 4 7 8 9 8 2 0 6 -4 9 -8z m-1874 -76 c0 -3 -4
-8 -10 -11 -5 -3 -10 -1 -10 4 0 6 5 11 10 11 6 0 10 -2 10 -4z m-152 -151
c-6 -14 -13 -23 -15 -21 -5 5 15 46 22 46 3 0 -1 -11 -7 -25z m2012 -95 c0 -5
-2 -10 -4 -10 -3 0 -8 5 -11 10 -3 6 -1 10 4 10 6 0 11 -4 11 -10z m40 0 c0
-5 -2 -10 -4 -10 -3 0 -8 5 -11 10 -3 6 -1 10 4 10 6 0 11 -4 11 -10z m-2125
-50 c-3 -6 1 -13 9 -16 9 -3 16 -12 16 -19 0 -7 6 -16 13 -19 6 -3 1 -3 -13 0
-24 5 -25 5 -5 -11 19 -16 19 -16 -8 -11 -19 3 -27 1 -24 -7 2 -7 12 -11 22
-9 17 3 17 2 1 -13 -9 -9 -16 -22 -16 -28 -1 -7 -6 -2 -13 11 -7 12 -17 19
-21 15 -5 -4 -4 2 3 14 6 12 16 25 22 28 7 5 6 11 -1 20 -8 10 -8 19 0 34 6
12 13 21 16 21 3 0 2 -5 -1 -10z m-32 -133 c14 -37 -14 -107 -32 -79 -5 8 -12
13 -17 12 -5 -1 -10 3 -12 9 -2 6 2 11 8 11 6 0 10 6 7 13 -4 12 20 47 33 47
5 0 10 -6 13 -13z m2137 -111 c0 -3 -4 -8 -10 -11 -5 -3 -10 -1 -10 4 0 6 5
11 10 11 6 0 10 -2 10 -4z m-2259 -65 c0 -3 2 -16 5 -28 2 -13 0 -23 -5 -23
-5 0 -18 -3 -28 -6 -11 -4 -14 -3 -7 3 6 4 10 22 9 40 -1 22 2 30 12 26 7 -3
13 -8 14 -12z m2259 -97 c0 -8 -19 -13 -24 -6 -3 5 1 9 9 9 8 0 15 -2 15 -3z
m-7 -39 c-3 -9 -8 -14 -10 -11 -3 3 -2 9 2 15 9 16 15 13 8 -4z m-2293 -89 c0
-2 -7 -7 -16 -10 -8 -3 -12 -2 -9 4 6 10 25 14 25 6z m-49 -189 c-10 -9 -11
-8 -5 6 3 10 9 15 12 12 3 -3 0 -11 -7 -18z m-96 -16 c-3 -6 -11 -8 -17 -5 -7
4 -8 2 -4 -5 4 -6 11 -9 16 -6 5 3 8 -4 7 -16 l-1 -21 -18 22 c-14 17 -15 26
-7 42 7 14 14 17 21 10 6 -6 7 -15 3 -21z m105 -5 c0 -2 -7 -7 -16 -10 -8 -3
-12 -2 -9 4 6 10 25 14 25 6z m-25 -36 c-3 -5 -12 -10 -18 -10 -7 0 -6 4 3 10
19 12 23 12 15 0z m-5 -90 c0 -5 -5 -10 -11 -10 -5 0 -7 -5 -3 -12 4 -7 3 -8
-4 -4 -6 4 -9 13 -5 21 6 17 23 20 23 5z m23 -17 c-17 -6 -16 -38 1 -53 8 -6
12 -19 9 -28 -6 -14 -4 -15 8 -5 10 8 19 9 29 2 12 -8 11 -9 -4 -7 -10 2 -21
-2 -23 -8 -5 -14 28 -14 47 -1 12 9 13 9 3 -3 -9 -10 -10 -17 -2 -27 7 -7 8
-13 3 -13 -5 0 -3 -4 5 -9 10 -7 19 -4 28 7 12 15 12 13 1 -8 -7 -14 -11 -28
-10 -32 1 -4 -5 -4 -14 -1 -15 5 -14 3 1 -20 19 -29 27 -34 24 -14 -3 27 1 47
11 47 7 0 7 -6 0 -20 -13 -25 -2 -26 17 -2 13 15 13 15 4 -5 -9 -18 -8 -23 9
-28 11 -3 20 -11 20 -18 0 -8 -3 -8 -12 1 -21 21 -32 13 -12 -9 18 -19 19 -20
32 -2 10 13 13 14 12 3 -4 -31 0 -39 18 -33 16 7 16 6 0 -11 -19 -18 -25 -41
-9 -31 11 6 34 -29 24 -38 -9 -10 -44 13 -38 24 9 14 -8 11 -33 -7 -25 -17
-31 -4 -7 16 11 9 13 16 6 23 -7 7 -7 15 1 25 9 11 9 13 -3 12 -25 -4 -40 0
-35 9 7 11 -28 43 -45 39 -7 -2 -14 4 -15 12 -3 37 -5 41 -14 35 -6 -4 -9 -3
-8 2 1 4 -3 18 -10 29 -6 12 -8 25 -4 29 4 5 2 5 -5 1 -7 -4 -10 -13 -6 -21 3
-8 0 -15 -7 -15 -7 0 -10 8 -7 19 3 12 -3 27 -14 37 -10 9 -19 13 -19 8 0 -5
-5 -1 -11 8 -11 19 5 63 20 53 5 -2 11 4 14 15 3 11 11 20 19 19 10 0 10 -2 1
-6z m67 3 c0 -3 -4 -8 -10 -11 -5 -3 -10 -1 -10 4 0 6 5 11 10 11 6 0 10 -2
10 -4z m-30 -41 c11 2 23 -1 26 -7 4 -7 2 -8 -4 -4 -7 4 -12 2 -12 -3 0 -6 5
-11 12 -11 6 0 8 -3 4 -7 -4 -5 -14 1 -22 11 -8 11 -14 16 -14 12 0 -5 -7 -3
-15 4 -8 7 -15 18 -15 24 0 6 5 3 10 -6 6 -9 19 -15 30 -13z m124 -123 c3 -5
-1 -9 -9 -9 -8 0 -12 4 -9 9 3 4 7 8 9 8 2 0 6 -4 9 -8z m36 -58 c0 -8 -19
-13 -24 -6 -3 5 1 9 9 9 8 0 15 -2 15 -3z m4546 -90 c-4 -9 -1 -23 6 -31 10
-12 8 -12 -14 -2 -24 10 -25 12 -9 29 20 23 25 24 17 4z m-4492 -19 c-7 -16
-24 -21 -24 -6 0 8 7 13 27 20 1 1 0 -6 -3 -14z m70 -33 c3 -5 -1 -9 -9 -9 -8
0 -12 4 -9 9 3 4 7 8 9 8 2 0 6 -4 9 -8z m46 -62 c0 -5 -5 -10 -11 -10 -5 0
-7 5 -4 10 3 6 8 10 11 10 2 0 4 -4 4 -10z m-43 -16 c-3 -3 -12 -4 -19 -1 -8
3 -5 6 6 6 11 1 17 -2 13 -5z m78 -64 c3 -5 1 -10 -4 -10 -6 0 -11 5 -11 10 0
6 2 10 4 10 3 0 8 -4 11 -10z m100 -92 c5 4 5 1 1 -6 -6 -10 -11 -10 -22 -1
-8 6 -14 14 -14 16 0 3 6 0 13 -6 8 -6 18 -7 22 -3z m22 -93 c0 -8 -4 -12 -9
-9 -4 3 -8 9 -8 15 0 5 4 9 8 9 5 0 9 -7 9 -15z m55 -60 c3 -13 1 -22 -3 -19
-9 5 -13 44 -5 44 2 0 6 -11 8 -25z m12 -51 c3 -8 2 -12 -4 -9 -6 3 -10 10
-10 16 0 14 7 11 14 -7z m71 -4 c3 -5 1 -10 -4 -10 -6 0 -11 5 -11 10 0 6 2
10 4 10 3 0 8 -4 11 -10z m-114 -27 c13 -16 12 -17 -3 -4 -10 7 -18 15 -18 17
0 8 8 3 21 -13z m139 -38 c-5 -7 -9 -14 -7 -16 1 -2 0 -3 -2 -1 -11 7 -7 29 5
29 9 0 11 -4 4 -12z m37 -28 c0 -8 -6 -14 -14 -14 -9 0 -10 4 -2 14 6 7 12 13
14 13 1 0 2 -6 2 -13z m-84 -14 c10 -2 15 1 12 7 -3 5 -1 10 5 10 7 0 9 -8 5
-20 -5 -17 1 -24 37 -40 24 -11 35 -20 26 -20 -10 0 -18 -5 -18 -11 0 -5 5 -7
12 -3 7 4 8 3 4 -5 -4 -6 -12 -9 -17 -6 -5 4 -9 2 -9 -4 0 -18 17 -21 30 -6 7
8 18 15 24 15 7 0 6 -4 -2 -9 -11 -7 -11 -11 2 -24 19 -19 21 -34 3 -18 -8 6
-22 9 -33 7 -11 -2 -28 2 -39 10 -10 8 -15 14 -11 14 4 0 -2 14 -14 30 -12 17
-18 30 -13 30 4 0 2 4 -6 9 -8 5 -23 8 -33 6 -19 -4 -25 10 -8 20 6 4 7 11 4
17 -5 7 -2 8 7 2 8 -4 22 -10 32 -11z m47 -13 c0 -5 -5 -10 -11 -10 -5 0 -7 5
-4 10 3 6 8 10 11 10 2 0 4 -4 4 -10z m92 -55 c2 3 5 -2 5 -10 0 -19 0 -19
-23 7 -12 14 -13 18 -3 10 9 -6 18 -10 21 -7z m19 -52 c13 -16 12 -17 -3 -4
-10 7 -18 15 -18 17 0 8 8 3 21 -13z m43 -11 c3 -5 -1 -9 -9 -9 -8 0 -12 4 -9
9 3 4 7 8 9 8 2 0 6 -4 9 -8z m41 -21 c3 -5 2 -12 -3 -15 -5 -3 -9 1 -9 9 0
17 3 19 12 6z m12 -78 c-14 -14 -19 -15 -29 -4 -11 10 -10 11 3 6 10 -4 20 -2
24 4 3 6 9 11 13 11 3 0 -1 -8 -11 -17z m34 -40 c13 -16 12 -17 -3 -4 -10 7
-18 15 -18 17 0 8 8 3 21 -13z m2974 -12 c3 -5 1 -12 -5 -16 -5 -3 -10 1 -10
9 0 18 6 21 15 7z m-3052 -19 c15 -16 15 -19 2 -19 -8 0 -13 3 -10 5 3 3 0 11
-6 19 -17 20 -5 16 14 -5z m111 -10 c3 -5 -1 -9 -9 -9 -8 0 -12 4 -9 9 3 4 7
8 9 8 2 0 6 -4 9 -8z m39 -75 c-5 -8 -8 -7 -11 1 -2 7 -9 9 -14 6 -7 -4 -8 -2
-4 4 4 6 13 9 21 6 8 -4 12 -11 8 -17z m24 -16 c0 -11 -5 -18 -9 -15 -4 3 -5
11 -1 19 7 21 12 19 10 -4z m38 -11 c3 -5 1 -10 -4 -10 -6 0 -11 5 -11 10 0 6
2 10 4 10 3 0 8 -4 11 -10z m-33 -64 c3 -15 1 -23 -6 -20 -6 2 -12 15 -12 29
-2 31 12 24 18 -9z m52 26 c3 -5 -1 -9 -9 -9 -8 0 -12 4 -9 9 3 4 7 8 9 8 2 0
6 -4 9 -8z m-10 -48 c-13 -11 -14 -14 -3 -11 9 3 16 -1 16 -8 0 -10 -5 -11
-17 -5 -9 5 -22 5 -31 -1 -7 -5 -12 -9 -9 -10 37 -6 51 -11 76 -24 18 -9 23
-15 12 -15 -9 0 -20 5 -23 10 -3 6 -11 10 -18 10 -6 0 0 -11 15 -25 15 -14 31
-25 37 -25 8 0 32 -51 35 -74 1 -5 9 -14 19 -20 14 -8 20 -8 27 4 5 8 10 11
10 5 0 -14 -16 -37 -25 -37 -4 0 -12 6 -16 14 -7 11 -9 11 -9 -1 0 -8 -9 -2
-21 13 -11 14 -24 24 -29 21 -4 -2 -20 5 -35 17 -24 18 -25 23 -12 33 12 9 13
14 2 28 -7 10 -15 14 -17 10 -3 -4 -3 -3 -2 4 2 6 -7 18 -19 26 -13 8 -23 25
-24 38 -1 15 1 19 6 11 6 -9 13 -8 31 8 13 11 28 20 33 20 6 0 2 -7 -9 -16z
m66 -7 c0 -2 -10 -12 -22 -23 l-23 -19 19 23 c18 21 26 27 26 19z m50 -63 c0
-8 -19 -13 -24 -6 -3 5 1 9 9 9 8 0 15 -2 15 -3z m-26 -29 c11 -8 16 -15 10
-15 -5 0 -18 7 -28 15 -11 8 -16 15 -10 15 5 0 18 -7 28 -15z m57 -12 c-12
-20 -14 -14 -5 12 4 9 9 14 11 11 3 -2 0 -13 -6 -23z m-43 -38 c-3 -3 -9 2
-12 12 -6 14 -5 15 5 6 7 -7 10 -15 7 -18z m29 -13 c-10 -10 -14 -23 -10 -28
4 -5 1 -3 -7 3 -12 11 -11 15 6 28 26 20 30 19 11 -3z m39 3 c-1 -8 -5 -17 -8
-21 -5 -4 -4 16 1 34 3 9 9 -1 7 -13z m0 -67 c4 -7 3 -8 -4 -4 -7 4 -12 2 -12
-5 0 -7 -3 -10 -6 -6 -6 5 3 27 11 27 2 0 7 -5 11 -12z m40 -24 c0 -13 -2 -22
-5 -19 -3 3 -6 17 -7 31 0 13 2 22 5 19 3 -3 6 -17 7 -31z m89 -4 c-3 -5 -12
-10 -18 -10 -7 0 -6 4 3 10 19 12 23 12 15 0z m-52 -54 c9 1 14 -2 11 -8 -4
-6 0 -14 7 -19 11 -7 11 -9 1 -9 -7 0 -15 7 -18 15 -4 8 -10 13 -15 10 -4 -3
-13 5 -19 17 -9 20 -9 21 2 7 7 -9 21 -15 31 -13z m44 -11 c0 -8 -4 -12 -9 -9
-5 3 -6 10 -3 15 9 13 12 11 12 -6z m-112 -23 c-3 -3 2 -13 11 -23 16 -17 15
-18 -10 -6 -27 13 -40 33 -30 48 3 6 11 5 20 -2 8 -6 12 -14 9 -17z m131 -27
c1 -8 -2 -13 -7 -9 -5 3 -9 0 -9 -5 0 -6 -8 -11 -17 -10 -11 0 -13 3 -5 6 6 2
10 9 6 14 -3 5 0 8 8 7 7 -2 12 4 10 12 -2 8 0 11 4 7 4 -4 9 -14 10 -22z m44
-21 c0 -8 -19 -13 -24 -6 -3 5 1 9 9 9 8 0 15 -2 15 -3z m-94 -59 c9 -14 20
-22 25 -19 5 3 9 0 9 -7 0 -8 4 -8 15 1 19 15 34 5 17 -12 -21 -21 -42 -17
-60 10 -9 15 -24 32 -32 39 -10 8 -11 12 -3 13 7 0 20 -11 29 -25z m77 18 c-7
-2 -19 -2 -25 0 -7 3 -2 5 12 5 14 0 19 -2 13 -5z m-30 -16 c7 3 8 2 4 -2 -10
-11 -37 -15 -37 -6 0 14 14 23 18 12 2 -6 9 -8 15 -4z m97 -61 c0 -2 -7 -7
-16 -10 -8 -3 -12 -2 -9 4 6 10 25 14 25 6z m1684 -85 c14 -5 16 -10 7 -15 -6
-4 -18 -3 -25 3 -11 9 -18 8 -30 -4 -14 -14 -16 -14 -16 -2 0 24 29 32 64 18z
m-1555 -54 c8 -10 7 -14 -2 -14 -8 0 -14 6 -14 14 0 7 1 13 2 13 2 0 8 -6 14
-13z m32 -20 c-10 -9 -11 -8 -5 6 3 10 9 15 12 12 3 -3 0 -11 -7 -18z m-46
-15 c-3 -3 -11 0 -18 7 -9 10 -8 11 6 5 10 -3 15 -9 12 -12z m-71 -18 c3 -8 2
-12 -4 -9 -6 3 -10 10 -10 16 0 14 7 11 14 -7z m46 6 c0 -5 -5 -10 -11 -10 -5
0 -7 5 -4 10 3 6 8 10 11 10 2 0 4 -4 4 -10z m40 -20 c0 -5 -5 -9 -11 -7 -6 1
-13 -3 -16 -10 -6 -16 27 -10 38 8 7 12 9 11 9 -2 0 -9 -8 -20 -17 -24 -16 -6
-16 -8 6 -26 12 -10 27 -17 32 -14 4 3 13 -4 19 -15 7 -13 7 -20 0 -20 -5 0
-10 8 -10 17 0 9 -3 13 -7 9 -5 -4 -8 -12 -8 -17 0 -5 -3 -9 -7 -9 -5 0 -8 2
-8 6 1 3 -17 19 -39 37 -37 30 -51 65 -23 60 7 -2 12 2 12 7 0 6 7 10 15 10 8
0 15 -4 15 -10z m35 -40 c-3 -5 -1 -10 6 -10 7 0 10 -2 7 -5 -3 -3 -13 -2 -22
1 -14 5 -15 9 -4 15 17 11 20 11 13 -1z m205 -140 c0 -5 -2 -10 -4 -10 -3 0
-8 5 -11 10 -3 6 -1 10 4 10 6 0 11 -4 11 -10z m-11 -94 c-3 -3 -11 5 -18 17
-13 21 -12 21 5 5 10 -10 16 -20 13 -22z m951 14 c0 -5 -2 -10 -4 -10 -3 0 -8
5 -11 10 -3 6 -1 10 4 10 6 0 11 -4 11 -10z m-899 -37 c13 -16 12 -17 -3 -4
-17 13 -22 21 -14 21 2 0 10 -8 17 -17z m-67 -5 c-5 -8 -2 -9 9 -5 22 8 22 -5
0 -19 -15 -9 -18 -7 -19 12 -1 13 2 24 8 24 5 0 6 -5 2 -12z m59 -63 c-3 -9
-8 -14 -10 -11 -3 3 -2 9 2 15 9 16 15 13 8 -4z m47 0 c0 -1 -6 -8 -14 -14
-11 -9 -16 -9 -22 0 -5 8 -3 9 6 4 10 -6 12 -4 7 8 -4 11 -2 14 9 10 7 -3 14
-6 14 -8z m34 -61 c3 -8 2 -12 -4 -9 -6 3 -10 10 -10 16 0 14 7 11 14 -7z
m-89 -12 c-3 -3 1 -12 8 -20 10 -13 9 -14 -9 -4 -12 6 -24 8 -28 4 -4 -3 -4 1
-1 9 3 9 12 16 20 16 8 0 13 -3 10 -5z m106 -29 c13 -16 12 -17 -3 -4 -17 13
-22 21 -14 21 2 0 10 -8 17 -17z m-15 -101 c-9 -8 -34 12 -29 24 4 12 8 11 18
-3 8 -10 12 -19 11 -21z m101 21 c0 -9 -4 -10 -14 -2 -7 6 -13 12 -13 14 0 1
6 2 13 2 8 0 14 -6 14 -14z m58 -32 c3 -5 2 -12 -3 -15 -5 -3 -9 1 -9 9 0 17
3 19 12 6z m5 -35 c0 -2 -7 -7 -16 -10 -8 -3 -12 -2 -9 4 6 10 25 14 25 6z
m-5 -36 c3 -6 -1 -7 -9 -4 -18 7 -21 14 -7 14 6 0 13 -4 16 -10z m99 -4 c-8
-20 -31 -27 -31 -10 0 7 4 11 8 8 4 -2 10 0 14 6 9 15 15 12 9 -4z m19 -21
c-3 -9 -8 -14 -10 -11 -3 3 -2 9 2 15 9 16 15 13 8 -4z m-141 -50 c0 -5 -5
-11 -10 -13 -5 -1 -9 4 -9 13 0 9 4 14 9 13 5 -2 10 -8 10 -13z"/>
<path d="M3675 7201 c-3 -5 -2 -12 3 -15 5 -3 9 1 9 9 0 17 -3 19 -12 6z"/>
<path d="M1881 6097 c6 -11 7 -17 1 -13 -5 3 -17 -3 -26 -13 -15 -16 -15 -19
-1 -31 12 -10 13 -16 4 -27 -7 -7 -9 -16 -5 -20 3 -3 6 -2 6 4 0 13 31 13 48
0 17 -14 68 24 65 49 -1 18 -1 18 13 0 8 -11 14 -15 14 -9 0 16 -24 32 -51 35
-15 2 -23 -2 -21 -9 1 -7 -2 -13 -8 -13 -5 0 -10 6 -10 13 0 9 -3 8 -9 -2 -5
-8 -11 -9 -15 -3 -3 5 1 12 9 16 9 3 12 12 9 23 -5 15 -4 16 6 3 10 -13 11
-13 7 0 -2 8 -13 16 -25 16 -18 1 -20 -2 -11 -19z m-6 -26 c-13 -23 45 -37 62
-15 7 10 13 11 18 5 3 -6 1 -11 -5 -11 -6 0 -8 -5 -5 -10 4 -6 12 -7 18 -3 7
4 6 0 -2 -10 -7 -9 -17 -15 -21 -12 -5 3 -11 -1 -14 -7 -3 -10 -8 -8 -19 4
-11 14 -16 15 -27 5 -8 -8 -11 -8 -7 -1 4 7 0 17 -8 24 -12 10 -13 16 -4 26
13 16 23 19 14 5z"/>
<path d="M1860 6056 c0 -2 8 -10 18 -17 15 -13 16 -12 3 4 -13 16 -21 21 -21
13z"/>
<path d="M1907 6023 c4 -9 9 -10 18 -3 6 5 15 8 18 5 4 -3 5 -2 2 2 -10 13
-43 10 -38 -4z"/>
<path d="M1922 6090 c-12 -19 -11 -20 8 -8 20 13 27 28 12 28 -4 0 -13 -9 -20
-20z"/>
<path d="M2025 6030 c-3 -5 0 -12 7 -16 6 -4 14 -2 16 4 2 7 9 9 15 5 7 -3 8
-2 4 2 -11 12 -36 15 -42 5z"/>
<path d="M3590 6059 c0 -5 5 -7 10 -4 6 3 10 8 10 11 0 2 -4 4 -10 4 -5 0 -10
-5 -10 -11z"/>
<path d="M2525 5848 c3 -24 -3 -40 -22 -59 -16 -18 -21 -29 -14 -34 6 -3 8
-11 5 -17 -4 -7 -2 -8 5 -4 6 4 9 11 6 16 -3 5 3 13 12 19 10 5 15 13 11 17
-5 4 -3 13 2 20 17 20 20 52 6 64 -11 8 -13 4 -11 -22z m-5 -62 c0 -2 -8 -10
-17 -17 -16 -13 -17 -12 -4 4 13 16 21 21 21 13z"/>
<path d="M2495 5710 c3 -5 11 -10 16 -10 6 0 7 5 4 10 -3 6 -11 10 -16 10 -6
0 -7 -4 -4 -10z"/>
<path d="M2380 5545 c-6 -7 -3 -11 10 -12 10 -1 21 4 23 11 6 16 -20 17 -33 1z"/>
<path d="M2304 5379 c-10 -12 -18 -23 -16 -25 1 -2 2 -5 1 -6 0 -2 -2 -11 -4
-21 -3 -15 -1 -16 11 -6 7 6 11 16 8 21 -3 5 3 12 14 15 11 2 19 11 18 19 -4
24 -12 25 -32 3z m26 7 c0 -2 -8 -10 -17 -17 -16 -13 -17 -12 -4 4 13 16 21
21 21 13z"/>
<path d="M2235 5216 c-11 -8 -14 -15 -8 -19 6 -4 16 0 23 8 17 21 8 28 -15 11z"/>
<path d="M1512 3821 c4 -13 18 -16 19 -4 0 4 -5 9 -11 12 -7 2 -11 -2 -8 -8z"/>
<path d="M1506 3747 c3 -10 9 -15 12 -12 3 3 0 11 -7 18 -10 9 -11 8 -5 -6z"/>
<path d="M1461 3706 c-8 -10 -9 -16 -1 -21 5 -3 10 -11 10 -16 0 -6 -4 -8 -9
-4 -5 3 -13 0 -17 -7 -4 -7 -4 -10 1 -6 4 4 14 3 20 -2 9 -8 14 -6 18 4 4 9 1
18 -5 22 -7 4 -6 9 3 15 10 6 11 11 3 19 -8 8 -14 7 -23 -4z"/>
<path d="M1236 2914 c-3 -9 -4 -19 -1 -22 3 -3 5 0 5 7 0 7 5 9 10 6 6 -4 8
-11 5 -16 -8 -11 5 -12 23 0 10 6 10 10 -3 21 -8 7 -15 9 -15 4 0 -5 -4 -3 -9
4 -6 11 -10 10 -15 -4z"/>
<path d="M1275 2860 c3 -5 8 -10 11 -10 2 0 4 5 4 10 0 6 -5 10 -11 10 -5 0
-7 -4 -4 -10z"/>
<path d="M1306 2841 c-10 -15 33 -61 50 -54 15 5 15 7 0 15 -9 5 -14 13 -12
17 3 4 -4 12 -14 19 -11 6 -21 8 -24 3z m29 -27 c9 -15 12 -23 6 -20 -11 7
-35 46 -28 46 3 0 12 -12 22 -26z"/>
<path d="M1396 2732 c-2 -4 2 -16 10 -27 8 -10 14 -14 14 -8 0 7 -5 15 -10 18
-6 4 -8 11 -5 16 4 5 4 9 1 9 -3 0 -7 -3 -10 -8z"/>
<path d="M1441 2677 c-8 -11 -9 -17 -1 -22 6 -3 7 -12 4 -18 -4 -7 1 -5 11 4
12 12 15 22 8 34 -8 14 -11 14 -22 2z"/>
<path d="M1476 2621 c-3 -5 1 -11 9 -14 9 -4 12 -1 8 9 -6 16 -10 17 -17 5z"/>
<path d="M1910 2042 c0 -5 7 -13 16 -16 8 -3 13 -9 10 -14 -2 -4 4 -18 14 -31
l18 -24 11 21 c7 13 8 22 2 22 -5 0 -23 12 -40 26 -17 14 -31 21 -31 16z m59
-66 c-3 -3 -11 5 -18 17 -13 21 -12 21 5 5 10 -10 16 -20 13 -22z"/>
<path d="M2330 1501 c0 -4 13 -20 28 -37 25 -28 33 -62 11 -49 -5 4 -6 -1 -2
-10 5 -13 7 -14 14 -3 8 13 13 3 9 -17 -1 -5 2 -7 6 -2 4 4 19 -3 32 -15 14
-13 21 -16 16 -8 -5 8 -9 17 -10 20 -4 22 -24 50 -61 85 -24 23 -43 39 -43 36z
m77 -78 c-4 -3 1 -16 10 -27 18 -21 18 -21 -4 -2 -20 16 -23 36 -6 36 4 0 3
-3 0 -7z"/>
<path d="M2840 824 c0 -5 15 -23 32 -40 18 -16 25 -20 15 -8 -9 11 -14 24 -10
29 5 4 3 5 -4 1 -6 -3 -16 2 -22 11 -6 10 -11 13 -11 7z"/>
<path d="M3585 7380 c-3 -6 1 -7 9 -4 18 7 21 14 7 14 -6 0 -13 -4 -16 -10z"/>
<path d="M3595 7361 c-3 -5 -2 -12 3 -15 5 -3 9 1 9 9 0 17 -3 19 -12 6z"/>
<path d="M3586 7322 c-2 -4 4 -8 14 -8 10 0 16 4 14 8 -3 4 -9 8 -14 8 -5 0
-11 -4 -14 -8z"/>
<path d="M3620 7300 c-12 -7 -10 -9 8 -7 12 0 22 5 22 9 0 11 -12 10 -30 -2z"/>
<path d="M3570 7281 c0 -6 4 -13 10 -16 6 -3 7 1 4 9 -7 18 -14 21 -14 7z"/>
<path d="M3547 7259 c7 -7 15 -10 18 -7 3 3 -2 9 -12 12 -14 6 -15 5 -6 -5z"/>
<path d="M3573 7226 c0 -7 6 -13 14 -13 7 0 13 4 13 8 0 4 -6 9 -13 12 -8 3
-14 0 -14 -7z"/>
<path d="M3548 7193 c7 -3 16 -2 19 1 4 3 -2 6 -13 5 -11 0 -14 -3 -6 -6z"/>
<path d="M3577 7180 c-3 -11 -1 -20 4 -20 5 0 9 9 9 20 0 11 -2 20 -4 20 -2 0
-6 -9 -9 -20z"/>
<path d="M3496 7182 c-2 -4 -1 -14 4 -22 7 -11 9 -9 7 8 -1 24 -3 26 -11 14z"/>
<path d="M3550 7154 c8 -10 15 -20 16 -22 1 -2 4 1 7 5 3 5 -4 15 -16 23 -21
12 -21 12 -7 -6z"/>
<path d="M3653 7158 c-15 -19 -12 -47 4 -41 7 3 13 -2 13 -11 0 -9 5 -16 11
-16 5 0 8 4 4 9 -3 6 2 14 12 19 22 13 26 41 4 37 -9 -1 -21 2 -27 6 -7 6 -15
4 -21 -3z m22 -19 c-4 -5 -1 -9 6 -9 7 0 9 -3 6 -6 -9 -9 -38 16 -31 27 3 5
10 7 15 3 5 -3 7 -10 4 -15z"/>
<path d="M3530 7079 c0 -5 5 -7 10 -4 6 3 10 8 10 11 0 2 -4 4 -10 4 -5 0 -10
-5 -10 -11z"/>
<path d="M3607 6976 c-4 -10 -1 -13 9 -9 15 6 19 23 5 23 -5 0 -11 -7 -14 -14z"/>
<path d="M3550 6901 c25 -21 25 -21 5 -37 -15 -13 -16 -15 -3 -11 9 3 22 -1
30 -10 11 -14 10 -15 -12 -9 -19 6 -22 5 -10 -3 13 -10 13 -12 0 -22 -12 -8
-9 -9 10 -3 21 6 23 5 13 -8 -7 -8 -10 -18 -6 -21 3 -4 -2 -7 -12 -7 -26 0
-11 -12 20 -15 14 -2 23 1 19 6 -3 5 -11 7 -17 3 -7 -3 -3 2 7 10 11 9 15 16
10 16 -13 0 -14 31 -3 46 6 7 3 16 -6 24 -8 7 -13 15 -10 19 2 4 -10 15 -28
25 l-32 18 25 -21z m41 -48 c13 -16 12 -17 -3 -4 -17 13 -22 21 -14 21 2 0 10
-8 17 -17z"/>
<path d="M3515 6891 c-3 -5 -2 -12 3 -15 5 -3 9 1 9 9 0 17 -3 19 -12 6z"/>
<path d="M3533 6785 c0 -7 6 -11 14 -8 7 3 13 6 13 8 0 2 -6 5 -13 8 -8 3 -14
-1 -14 -8z"/>
<path d="M3533 6738 c-1 -11 1 -16 5 -12 4 5 11 12 15 15 5 3 2 9 -5 12 -9 3
-14 -3 -15 -15z"/>
<path d="M2775 6709 c-4 -6 -5 -12 -2 -15 2 -3 7 2 10 11 7 17 1 20 -8 4z"/>
<path d="M2657 6655 c-4 -8 -3 -16 1 -19 4 -3 9 4 9 15 2 23 -3 25 -10 4z"/>
<path d="M3494 6602 c4 -3 14 -7 22 -8 9 -1 13 0 10 4 -4 3 -14 7 -22 8 -9 1
-13 0 -10 -4z"/>
<path d="M3606 6595 c4 -8 11 -15 16 -15 6 0 5 6 -2 15 -7 8 -14 15 -16 15 -2
0 -1 -7 2 -15z"/>
<path d="M3495 6560 c-3 -5 -1 -10 4 -10 6 0 11 5 11 10 0 6 -2 10 -4 10 -3 0
-8 -4 -11 -10z"/>
<path d="M3476 6462 c-3 -5 1 -9 9 -9 8 0 12 4 9 9 -3 4 -7 8 -9 8 -2 0 -6 -4
-9 -8z"/>
<path d="M2175 6420 c-3 -5 -1 -10 4 -10 6 0 11 5 11 10 0 6 -2 10 -4 10 -3 0
-8 -4 -11 -10z"/>
<path d="M3506 6422 c-3 -4 4 -9 15 -9 23 -2 25 3 4 10 -8 4 -16 3 -19 -1z"/>
<path d="M3595 6360 c3 -5 8 -10 11 -10 2 0 4 5 4 10 0 6 -5 10 -11 10 -5 0
-7 -4 -4 -10z"/>
<path d="M3542 6319 c20 -24 44 -43 52 -43 14 2 15 -1 4 -14 -11 -13 -10 -14
2 -10 8 2 15 11 15 19 0 8 -7 14 -15 14 -20 1 -41 15 -36 24 3 4 -9 18 -27 31
l-32 24 37 -45z"/>
<path d="M1910 6316 c0 -2 8 -10 18 -17 15 -13 16 -12 3 4 -13 16 -21 21 -21
13z"/>
<path d="M1576 6078 c3 -4 11 -5 19 -1 21 7 19 12 -4 10 -11 0 -18 -5 -15 -9z"/>
<path d="M1660 6069 c0 -5 -4 -8 -9 -4 -5 3 -12 1 -15 -4 -4 -5 2 -8 11 -7 15
3 33 26 19 26 -3 0 -6 -5 -6 -11z"/>
<path d="M2303 6067 c3 -8 -2 -22 -12 -31 -16 -15 -20 -15 -30 -2 -17 21 -53
-1 -45 -26 8 -26 -25 -36 -42 -13 -7 10 -11 22 -8 26 3 5 -1 9 -8 9 -10 0 -9
3 2 10 8 5 11 12 7 16 -4 4 -8 5 -9 3 -2 -2 -15 -18 -30 -34 -25 -28 -26 -32
-12 -55 l15 -25 -6 25 c-6 24 -5 24 9 6 9 -11 16 -16 16 -11 0 5 -7 17 -17 27
-21 24 -5 23 27 -2 32 -25 35 -25 72 1 20 15 29 17 28 8 -2 -8 -2 -21 -1 -29
1 -13 3 -13 10 -1 5 8 7 20 4 28 -3 7 0 13 6 13 11 0 15 -13 11 -40 -1 -8 8
-3 20 13 12 15 26 27 32 27 7 0 7 -4 0 -13 -8 -9 -8 -17 0 -27 8 -12 9 -12 4
2 -3 10 -1 20 4 23 6 4 10 -2 11 -12 0 -11 3 -13 6 -5 3 7 -1 19 -7 28 -7 8
-10 18 -6 22 4 4 12 0 16 -8 30 -50 37 -51 45 -12 4 23 -19 49 -29 33 -9 -14
-37 -2 -29 13 3 6 2 8 -2 3 -5 -4 -20 0 -33 9 -22 14 -24 14 -19 1z m46 -26
c3 -1 -6 -12 -19 -26 -21 -22 -25 -23 -33 -10 -11 20 8 44 31 40 9 -2 19 -4
21 -4z m-88 -18 c8 -10 9 -14 2 -10 -6 4 -14 3 -18 -3 -4 -6 -11 -8 -16 -4 -6
4 -6 11 2 20 14 17 14 18 30 -3z m145 5 c4 -7 3 -8 -4 -4 -7 4 -12 3 -12 -3 0
-5 6 -12 13 -14 9 -4 9 -6 0 -6 -15 -1 -26 16 -18 29 8 13 12 13 21 -2z m-252
-14 c3 -8 2 -12 -4 -9 -6 3 -10 10 -10 16 0 14 7 11 14 -7z"/>
<path d="M2304 6028 c-4 -5 -3 -12 0 -15 3 -4 6 -1 6 6 0 7 4 10 9 6 5 -3 12
-2 15 3 3 5 -2 9 -10 9 -8 0 -17 -4 -20 -9z"/>
<path d="M1708 6063 c7 -3 16 -2 19 1 4 3 -2 6 -13 5 -11 0 -14 -3 -6 -6z"/>
<path d="M2187 6043 c4 -10 2 -14 -4 -10 -12 8 -12 -11 0 -31 11 -16 28 -6 21
12 -3 8 0 17 5 21 14 8 4 25 -14 25 -9 0 -12 -6 -8 -17z"/>
<path d="M1614 6020 c0 -13 4 -16 10 -10 7 7 7 13 0 20 -6 6 -10 3 -10 -10z"/>
<path d="M1576 6002 c-3 -5 1 -9 9 -9 8 0 12 4 9 9 -3 4 -7 8 -9 8 -2 0 -6 -4
-9 -8z"/>
<path d="M2496 5998 c3 -5 10 -6 15 -3 13 9 11 12 -6 12 -8 0 -12 -4 -9 -9z"/>
<path d="M1616 5978 c3 -5 10 -6 15 -3 13 9 11 12 -6 12 -8 0 -12 -4 -9 -9z"/>
<path d="M2077 5983 c-12 -11 -8 -23 9 -23 9 0 12 -5 8 -12 -5 -7 -3 -8 6 -3
10 6 10 11 -3 20 -9 7 -14 15 -10 18 3 4 4 7 1 7 -2 0 -8 -3 -11 -7z"/>
<path d="M1576 5958 c3 -4 11 -5 19 -1 21 7 19 12 -4 10 -11 0 -18 -5 -15 -9z"/>
<path d="M1647 5959 c7 -7 15 -10 18 -7 3 3 -2 9 -12 12 -14 6 -15 5 -6 -5z"/>
<path d="M1718 5963 c7 -3 16 -2 19 1 4 3 -2 6 -13 5 -11 0 -14 -3 -6 -6z"/>
<path d="M1875 5959 c-4 -6 -4 -13 -1 -16 3 -4 6 -1 6 6 0 7 5 9 12 5 7 -4 8
-3 4 4 -9 15 -13 15 -21 1z"/>
<path d="M2228 5963 c7 -3 16 -2 19 1 4 3 -2 6 -13 5 -11 0 -14 -3 -6 -6z"/>
<path d="M2376 5961 c-3 -5 1 -14 9 -21 8 -7 12 -17 8 -23 -4 -6 -1 -7 6 -3 7
5 10 10 7 14 -3 3 2 10 11 17 13 9 13 14 3 20 -9 5 -11 4 -6 -3 4 -7 2 -12 -3
-12 -6 0 -14 0 -18 0 -5 0 -7 5 -5 10 3 12 -5 13 -12 1z"/>
<path d="M1694 5935 c0 -13 3 -22 7 -19 8 4 6 30 -2 38 -3 3 -5 -5 -5 -19z"/>
<path d="M1934 5949 c1 -7 10 -13 19 -15 9 -1 15 2 11 7 -3 5 -9 7 -14 4 -4
-3 -11 0 -13 5 -3 6 -4 5 -3 -1z"/>
<path d="M2436 5934 c-18 -25 -18 -25 3 -12 12 7 21 18 21 25 0 18 -2 16 -24
-13z"/>
<path d="M2033 5933 c0 -9 4 -10 12 -3 7 5 15 7 18 3 4 -3 7 -1 7 5 0 6 -8 10
-18 9 -10 0 -19 -7 -19 -14z"/>
<path d="M2213 5935 c0 -8 4 -12 9 -9 4 3 8 9 8 15 0 5 -4 9 -8 9 -5 0 -9 -7
-9 -15z"/>
<path d="M2547 5939 c7 -9 10 -19 6 -22 -3 -4 -1 -7 5 -7 17 0 15 16 -5 31
-16 12 -17 12 -6 -2z"/>
<path d="M1759 5913 c-13 -16 -12 -17 4 -4 16 13 21 21 13 21 -2 0 -10 -8 -17
-17z"/>
<path d="M1826 5918 c3 -5 10 -6 15 -3 13 9 11 12 -6 12 -8 0 -12 -4 -9 -9z"/>
<path d="M1999 5913 c-13 -16 -12 -17 4 -4 9 7 17 15 17 17 0 8 -8 3 -21 -13z"/>
<path d="M2170 5919 c0 -5 5 -7 10 -4 6 3 10 8 10 11 0 2 -4 4 -10 4 -5 0 -10
-5 -10 -11z"/>
<path d="M1956 5902 c-3 -5 1 -9 9 -9 8 0 12 4 9 9 -3 4 -7 8 -9 8 -2 0 -6 -4
-9 -8z"/>
<path d="M2046 5898 c3 -5 10 -6 15 -3 13 9 11 12 -6 12 -8 0 -12 -4 -9 -9z"/>
<path d="M2444 5899 c-4 -7 -3 -9 4 -5 5 3 13 0 15 -6 4 -9 6 -10 6 -1 1 17
-16 25 -25 12z"/>
<path d="M2416 5882 c-3 -4 4 -9 15 -9 23 -2 25 3 4 10 -8 4 -16 3 -19 -1z"/>
<path d="M2460 5860 c-8 -5 -10 -10 -5 -10 6 0 17 5 25 10 8 5 11 10 5 10 -5
0 -17 -5 -25 -10z"/>
<path d="M1756 5833 c-6 -14 -5 -15 5 -6 7 7 10 15 7 18 -3 3 -9 -2 -12 -12z"/>
<path d="M2415 5840 c-3 -5 -1 -10 4 -10 6 0 11 5 11 10 0 6 -2 10 -4 10 -3 0
-8 -4 -11 -10z"/>
<path d="M2439 5781 c5 -25 6 -25 9 -3 2 14 8 20 15 16 7 -4 8 -3 4 1 -18 20
-34 13 -28 -14z"/>
<path d="M2416 5773 c-6 -14 -5 -15 5 -6 7 7 10 15 7 18 -3 3 -9 -2 -12 -12z"/>
<path d="M2370 5741 c0 -6 4 -13 10 -16 6 -3 7 1 4 9 -7 18 -14 21 -14 7z"/>
<path d="M2377 5669 c7 -7 15 -10 18 -7 3 3 -2 9 -12 12 -14 6 -15 5 -6 -5z"/>
<path d="M2354 5652 c0 -10 6 -19 13 -19 8 0 9 6 2 19 -5 10 -11 18 -12 18 -2
0 -3 -8 -3 -18z"/>
<path d="M2453 5638 c-18 -24 -24 -38 -16 -38 10 0 36 40 30 46 -2 3 -9 -1
-14 -8z"/>
<path d="M2316 5601 c-3 -5 2 -15 12 -22 15 -12 16 -12 5 2 -7 9 -10 19 -6 22
3 4 4 7 0 7 -3 0 -8 -4 -11 -9z"/>
<path d="M2310 5510 c8 -5 20 -10 25 -10 6 0 3 5 -5 10 -8 5 -19 10 -25 10 -5
0 -3 -5 5 -10z"/>
<path d="M2255 5480 c-3 -5 -1 -10 4 -10 6 0 11 5 11 10 0 6 -2 10 -4 10 -3 0
-8 -4 -11 -10z"/>
<path d="M2230 5360 c0 -5 5 -10 10 -10 6 0 10 5 10 10 0 6 -4 10 -10 10 -5 0
-10 -4 -10 -10z"/>
<path d="M2150 5266 c0 -2 7 -7 16 -10 8 -3 12 -2 9 4 -6 10 -25 14 -25 6z"/>
<path d="M2126 5222 c-3 -5 1 -9 9 -9 8 0 12 4 9 9 -3 4 -7 8 -9 8 -2 0 -6 -4
-9 -8z"/>
<path d="M2160 5219 c0 -5 5 -7 10 -4 6 3 10 8 10 11 0 2 -4 4 -10 4 -5 0 -10
-5 -10 -11z"/>
<path d="M2140 5192 c0 -6 -8 -9 -17 -6 -15 5 -16 4 -3 -5 16 -11 40 3 27 16
-4 3 -7 1 -7 -5z"/>
<path d="M2150 5166 c0 -5 8 -18 17 -28 16 -17 16 -20 0 -35 -11 -11 -17 -13
-17 -5 0 7 5 12 10 12 20 0 9 16 -22 34 l-33 18 25 -20 c24 -20 24 -21 6 -41
-11 -12 -24 -21 -29 -21 -6 0 -3 8 6 18 10 10 17 22 17 26 0 5 -9 -2 -19 -15
-22 -27 -11 -50 14 -29 8 7 18 10 21 7 3 -3 -3 -11 -14 -18 -19 -12 -19 -14
-4 -26 16 -12 16 -13 0 -7 -13 4 -18 1 -19 -12 0 -11 -3 -14 -6 -7 -3 10 -8 9
-20 -3 -8 -8 -12 -18 -8 -22 4 -4 10 -1 12 6 3 6 9 10 13 7 5 -3 7 -12 4 -20
-4 -8 -11 -12 -18 -8 -6 4 -5 -1 3 -11 13 -15 12 -17 -12 -12 -15 2 -31 7 -37
11 -5 3 -10 1 -10 -4 0 -6 7 -11 16 -11 8 0 13 -4 9 -9 -3 -5 -1 -12 5 -16 5
-3 10 -13 10 -22 0 -11 -5 -9 -20 8 -10 13 -19 18 -20 12 0 -7 5 -13 10 -13 6
0 10 -5 10 -11 0 -5 -4 -7 -10 -4 -5 3 -10 1 -10 -5 0 -6 -5 -8 -12 -4 -7 5
-8 3 -4 -5 5 -7 18 -16 30 -21 20 -9 20 -9 0 -9 -11 -1 -25 4 -32 11 -7 7 -12
8 -12 4 0 -5 -8 -2 -17 5 -11 9 -9 2 6 -20 l24 -33 -24 7 c-21 6 -20 4 6 -13
31 -20 50 -17 75 12 15 19 -2 46 -29 46 -13 0 -14 2 -1 9 8 6 17 8 21 5 5 -2
15 12 25 31 9 20 25 40 36 46 13 7 16 14 9 22 -10 13 10 51 23 42 3 -3 2 1 -4
7 -7 8 -2 20 16 39 14 15 26 30 25 33 -3 19 0 26 9 21 6 -3 10 1 10 9 0 9 -7
13 -20 11 -11 -2 -24 3 -30 13 -5 9 -10 13 -10 8z m30 -69 c0 -2 -12 -14 -27
-28 l-28 -24 24 28 c23 25 31 32 31 24z m-59 -90 c-10 -9 -11 -8 -5 6 3 10 9
15 12 12 3 -3 0 -11 -7 -18z m-10 -40 c-10 -9 -11 -8 -5 6 3 10 9 15 12 12 3
-3 0 -11 -7 -18z m-27 -38 c-3 -5 -10 -7 -15 -3 -5 3 -7 10 -3 15 3 5 10 7 15
3 5 -3 7 -10 3 -15z m-34 -92 l25 4 -25 -18 c-26 -18 -35 -19 -35 -4 0 5 -3
13 -7 17 -5 4 -8 12 -8 18 0 6 6 4 13 -5 7 -10 22 -14 37 -12z"/>
<path d="M2090 5141 c0 -6 4 -13 10 -16 6 -3 7 1 4 9 -7 18 -14 21 -14 7z"/>
<path d="M2072 5058 c2 -6 10 -13 16 -14 7 -1 8 0 2 3 -5 2 -8 9 -4 14 3 5 0
9 -6 9 -7 0 -10 -5 -8 -12z"/>
<path d="M2053 5025 c0 -8 4 -12 9 -9 5 3 6 10 3 15 -9 13 -12 11 -12 -6z"/>
<path d="M2050 4985 c0 -8 4 -15 10 -15 5 0 7 7 4 15 -4 8 -8 15 -10 15 -2 0
-4 -7 -4 -15z"/>
<path d="M1990 4942 c0 -5 7 -9 15 -9 8 0 12 4 9 9 -3 4 -9 8 -15 8 -5 0 -9
-4 -9 -8z"/>
<path d="M1956 4843 c-6 -14 -5 -15 5 -6 7 7 10 15 7 18 -3 3 -9 -2 -12 -12z"/>
<path d="M1957 4809 c7 -7 15 -10 18 -7 3 3 -2 9 -12 12 -14 6 -15 5 -6 -5z"/>
<path d="M1937 4780 c4 -16 2 -19 -13 -14 -15 5 -16 4 -4 -4 8 -6 18 -8 22 -6
11 7 10 32 -1 38 -5 4 -7 -3 -4 -14z"/>
<path d="M1995 4730 c-3 -5 -1 -10 4 -10 6 0 11 5 11 10 0 6 -2 10 -4 10 -3 0
-8 -4 -11 -10z"/>
<path d="M1915 4589 c-4 -6 -5 -12 -2 -15 2 -3 7 2 10 11 7 17 1 20 -8 4z"/>
<path d="M1824 4578 c-3 -4 5 -5 17 -3 30 6 36 14 9 12 -12 -1 -24 -5 -26 -9z"/>
<path d="M1745 4500 c-3 -6 1 -7 9 -4 18 7 21 14 7 14 -6 0 -13 -4 -16 -10z"/>
<path d="M1785 4500 c-3 -6 1 -7 9 -4 18 7 21 14 7 14 -6 0 -13 -4 -16 -10z"/>
<path d="M1795 4480 c-3 -5 -1 -10 4 -10 6 0 11 5 11 10 0 6 -2 10 -4 10 -3 0
-8 -4 -11 -10z"/>
<path d="M1746 4462 c-3 -5 1 -9 9 -9 8 0 12 4 9 9 -3 4 -7 8 -9 8 -2 0 -6 -4
-9 -8z"/>
<path d="M1716 4381 c9 -9 34 -9 34 -1 0 5 -9 8 -20 7 -10 -1 -17 -3 -14 -6z"/>
<path d="M1675 4349 c-4 -6 -5 -12 -2 -15 2 -3 7 2 10 11 7 17 1 20 -8 4z"/>
<path d="M1754 4336 c4 -25 -2 -30 -30 -27 -6 1 -18 -7 -25 -16 -13 -16 -12
-17 4 -4 9 8 20 11 23 8 3 -3 -3 -11 -15 -19 l-21 -13 22 -11 21 -12 -21 -6
c-11 -4 -24 -16 -27 -27 -4 -10 -11 -19 -16 -19 -6 0 -7 5 -3 12 4 7 3 8 -5 4
-9 -6 -9 -11 -1 -21 8 -10 7 -14 -2 -18 -7 -3 4 -4 26 -2 45 4 68 21 42 31
-15 6 -15 8 4 21 11 8 18 18 15 23 -3 5 11 21 31 36 29 22 33 29 20 36 -9 5
-13 16 -9 26 4 13 2 13 -11 -3 -12 -15 -14 -15 -10 -4 3 10 0 20 -6 24 -7 4
-9 -2 -6 -19z m11 -56 c-17 -17 -33 -26 -43 -23 -11 5 -7 12 19 34 42 34 60
26 24 -11z m-44 -59 c-23 -18 -23 -19 -5 -29 10 -6 15 -12 9 -12 -5 -1 -18 -3
-27 -5 -10 -2 -18 1 -18 6 0 12 46 59 57 59 4 0 -3 -9 -16 -19z"/>
<path d="M1749 4283 l-24 -28 28 24 c15 14 27 26 27 28 0 8 -8 1 -31 -24z"/>
<path d="M1641 4236 c-9 -11 -9 -16 1 -22 7 -4 10 -4 6 1 -4 4 -3 14 3 22 6 7
9 13 6 13 -2 0 -10 -6 -16 -14z"/>
<path d="M1678 4243 c7 -3 16 -2 19 1 4 3 -2 6 -13 5 -11 0 -14 -3 -6 -6z"/>
<path d="M1617 4186 c-4 -10 -3 -15 3 -11 6 3 10 1 10 -6 0 -7 3 -10 6 -6 3 3
2 13 -4 22 -8 16 -9 16 -15 1z"/>
<path d="M1590 4161 c0 -6 4 -13 10 -16 6 -3 7 1 4 9 -7 18 -14 21 -14 7z"/>
<path d="M1585 4120 c-3 -6 1 -7 9 -4 18 7 21 14 7 14 -6 0 -13 -4 -16 -10z"/>
<path d="M1610 4100 c0 -5 5 -10 10 -10 6 0 10 5 10 10 0 6 -4 10 -10 10 -5 0
-10 -4 -10 -10z"/>
<path d="M1575 4070 c-7 -11 22 -26 32 -16 4 3 -1 6 -11 6 -9 0 -14 5 -11 10
3 6 4 10 1 10 -3 0 -8 -5 -11 -10z"/>
<path d="M1556 4015 c4 -8 8 -15 10 -15 2 0 4 7 4 15 0 8 -4 15 -10 15 -5 0
-7 -7 -4 -15z"/>
<path d="M1479 3993 c-12 -16 -12 -17 2 -6 9 7 20 9 24 5 5 -4 5 -1 1 6 -9 16
-11 15 -27 -5z"/>
<path d="M1550 3961 c0 -7 -5 -9 -11 -5 -7 4 -7 -1 1 -15 13 -25 -3 -56 -23
-44 -6 3 -7 1 -3 -5 10 -16 12 -15 37 11 l21 22 -7 -25 c-7 -22 -6 -24 9 -11
11 9 13 18 7 24 -5 5 -7 15 -5 22 3 6 -2 18 -11 25 -11 9 -15 9 -15 1z m20
-21 c0 -5 -4 -10 -10 -10 -5 0 -10 5 -10 10 0 6 5 10 10 10 6 0 10 -4 10 -10z"/>
<path d="M1495 3951 c-3 -5 -2 -12 3 -15 5 -3 9 1 9 9 0 17 -3 19 -12 6z"/>
<path d="M1510 3920 c-13 -8 -12 -10 3 -10 9 0 17 5 17 10 0 12 -1 12 -20 0z"/>
<path d="M1478 3864 c4 -20 1 -23 -14 -18 -15 5 -16 4 -4 -4 18 -14 30 -6 30
19 0 13 4 18 13 13 6 -4 8 -3 4 1 -17 19 -34 13 -29 -11z"/>
<path d="M1386 3722 c-3 -4 4 -9 15 -9 23 -2 25 3 4 10 -8 4 -16 3 -19 -1z"/>
<path d="M1335 3680 c3 -5 8 -10 11 -10 2 0 4 5 4 10 0 6 -5 10 -11 10 -5 0
-7 -4 -4 -10z"/>
<path d="M1398 3683 c7 -3 16 -2 19 1 4 3 -2 6 -13 5 -11 0 -14 -3 -6 -6z"/>
<path d="M1435 3590 c4 -6 11 -8 16 -5 14 9 11 15 -7 15 -8 0 -12 -5 -9 -10z"/>
<path d="M1315 3580 c3 -5 8 -10 11 -10 2 0 4 5 4 10 0 6 -5 10 -11 10 -5 0
-7 -4 -4 -10z"/>
<path d="M1275 3480 c-3 -5 -1 -10 4 -10 6 0 11 5 11 10 0 6 -2 10 -4 10 -3 0
-8 -4 -11 -10z"/>
<path d="M1325 3419 c-3 -4 2 -6 10 -5 21 3 28 13 10 13 -9 0 -18 -4 -20 -8z"/>
<path d="M1176 3353 c-6 -14 -5 -15 5 -6 7 7 10 15 7 18 -3 3 -9 -2 -12 -12z"/>
<path d="M1207 3323 c-4 -3 -7 -15 -7 -25 0 -12 -4 -16 -12 -12 -7 4 -8 3 -4
-5 10 -16 26 -4 26 20 0 13 4 18 12 13 7 -4 8 -3 4 4 -8 14 -10 14 -19 5z"/>
<path d="M6236 3238 c3 -5 10 -6 15 -3 13 9 11 12 -6 12 -8 0 -12 -4 -9 -9z"/>
<path d="M1151 3213 c6 -7 17 -13 23 -12 7 0 6 2 -2 6 -6 2 -10 8 -8 12 3 4
-1 8 -9 8 -11 0 -12 -4 -4 -14z"/>
<path d="M6196 3195 c-3 -9 -6 -22 -5 -28 0 -7 5 -1 10 12 5 13 8 26 5 28 -2
2 -6 -3 -10 -12z"/>
<path d="M1213 3171 c1 -22 12 -28 21 -12 3 5 -1 14 -9 21 -11 9 -14 8 -12 -9z"/>
<path d="M6228 3183 c7 -3 16 -2 19 1 4 3 -2 6 -13 5 -11 0 -14 -3 -6 -6z"/>
<path d="M1170 2945 c0 -8 4 -15 10 -15 5 0 7 7 4 15 -4 8 -8 15 -10 15 -2 0
-4 -7 -4 -15z"/>
<path d="M6277 2912 c-15 -16 -15 -19 -2 -19 8 0 13 3 10 5 -3 3 0 11 6 19 17
20 5 16 -14 -5z"/>
<path d="M1170 2885 c0 -5 5 -17 10 -25 5 -8 10 -10 10 -5 0 6 -5 17 -10 25
-5 8 -10 11 -10 5z"/>
<path d="M6253 2863 c1 -21 2 -21 19 -6 21 19 24 31 4 14 -11 -9 -15 -9 -19 1
-3 7 -4 3 -4 -9z"/>
<path d="M1200 2840 c-9 -6 -10 -10 -3 -10 6 0 15 5 18 10 8 12 4 12 -15 0z"/>
<path d="M6230 2841 c0 -6 4 -13 10 -16 6 -3 7 1 4 9 -7 18 -14 21 -14 7z"/>
<path d="M1215 2800 c3 -5 8 -10 11 -10 2 0 4 5 4 10 0 6 -5 10 -11 10 -5 0
-7 -4 -4 -10z"/>
<path d="M6250 2799 c0 -5 5 -7 10 -4 6 3 10 8 10 11 0 2 -4 4 -10 4 -5 0 -10
-5 -10 -11z"/>
<path d="M6182 2780 c15 -24 25 -26 25 -5 0 8 -4 12 -9 9 -4 -3 -8 0 -8 5 0 6
-5 11 -10 11 -6 0 -5 -8 2 -20z"/>
<path d="M6144 2778 c-4 -7 -4 -10 1 -6 4 4 15 2 24 -5 14 -11 14 -10 2 6 -16
20 -18 21 -27 5z"/>
<path d="M1273 2748 c-2 -18 0 -20 7 -8 12 18 13 30 2 30 -4 0 -9 -10 -9 -22z"/>
<path d="M6092 2716 c2 -1 12 -8 22 -16 11 -8 17 -10 13 -3 -4 6 -1 13 5 16 7
2 0 4 -15 4 -15 0 -27 0 -25 -1z"/>
<path d="M6146 2679 c2 -4 13 -7 24 -6 23 2 17 10 -10 12 -10 1 -17 -2 -14 -6z"/>
<path d="M1372 2656 c7 -8 15 -12 17 -11 5 6 -10 25 -20 25 -5 0 -4 -6 3 -14z"/>
<path d="M6090 2636 c0 -2 8 -10 18 -17 15 -13 16 -12 3 4 -13 16 -21 21 -21
13z"/>
<path d="M5936 2559 c-33 -32 -38 -41 -27 -52 11 -10 12 -9 7 1 -8 14 10 42
26 42 7 0 7 -5 0 -13 -6 -7 -10 -20 -8 -30 3 -26 12 -29 13 -4 2 31 8 55 16
63 4 4 7 2 7 -4 0 -7 5 -12 11 -12 8 0 8 4 -1 15 -6 8 -9 19 -5 25 11 17 2 10
-39 -31z"/>
<path d="M1542 2578 c-18 -18 -14 -27 9 -23 29 6 32 10 16 23 -10 9 -17 8 -25
0z"/>
<path d="M6013 2573 c0 -9 4 -10 14 -2 7 6 13 12 13 14 0 1 -6 2 -13 2 -8 0
-14 -6 -14 -14z"/>
<path d="M6034 2548 c-19 -23 -19 -23 2 -5 11 9 24 14 29 10 4 -5 5 -2 1 5 -9
16 -10 16 -32 -10z"/>
<path d="M5995 2540 c-3 -5 -1 -10 4 -10 6 0 11 5 11 10 0 6 -2 10 -4 10 -3 0
-8 -4 -11 -10z"/>
<path d="M1535 2491 c-3 -12 -11 -19 -16 -16 -5 3 -6 -1 -2 -11 5 -14 8 -13
19 7 7 13 14 21 15 17 5 -23 4 -34 -4 -39 -5 -3 -1 -9 8 -12 10 -5 14 -3 9 4
-4 7 -1 10 7 7 15 -6 15 -11 3 -42 -5 -14 -4 -17 4 -12 7 4 12 14 12 22 0 8 5
12 10 9 7 -4 6 -13 -1 -26 -6 -12 -8 -23 -5 -27 3 -3 6 1 7 9 0 8 5 3 11 -11
6 -15 12 -20 15 -12 3 6 9 12 14 12 12 0 8 -32 -6 -43 -6 -5 -1 -6 10 -2 11 4
25 8 30 8 22 1 12 34 -15 52 -16 11 -27 22 -24 26 2 4 -3 12 -11 19 -8 7 -13
16 -10 20 6 10 -25 51 -35 45 -4 -3 -11 1 -13 7 -4 9 -6 8 -6 -2 -1 -12 -3
-13 -10 -1 -7 11 -10 9 -16 -8z m57 -26 c-2 -11 1 -14 9 -9 7 4 10 3 6 -3 -4
-6 0 -16 8 -23 8 -7 13 -16 10 -20 -2 -4 9 -17 26 -29 28 -21 31 -41 6 -41 -8
0 -8 3 1 9 10 6 10 10 -2 20 -8 7 -20 10 -26 6 -5 -3 -11 0 -12 7 0 7 -2 18
-2 23 -2 15 -42 65 -48 60 -3 -3 -5 1 -5 9 0 7 7 13 16 11 9 -1 15 -10 13 -20z"/>
<path d="M1475 2480 c3 -5 8 -10 11 -10 2 0 4 5 4 10 0 6 -5 10 -11 10 -5 0
-7 -4 -4 -10z"/>
<path d="M5910 2484 c0 -20 27 -37 36 -23 4 7 3 9 -4 5 -6 -3 -15 2 -21 11 -6
10 -11 13 -11 7z"/>
<path d="M5966 2478 c3 -5 10 -6 15 -3 13 9 11 12 -6 12 -8 0 -12 -4 -9 -9z"/>
<path d="M5816 2432 c-3 -4 4 -9 15 -9 23 -2 25 3 4 10 -8 4 -16 3 -19 -1z"/>
<path d="M1530 2426 c0 -2 7 -7 16 -10 8 -3 12 -2 9 4 -6 10 -25 14 -25 6z"/>
<path d="M5772 2378 c-37 -25 -40 -31 -30 -48 12 -18 13 -18 22 -2 6 9 10 23
11 31 0 8 6 16 13 18 8 3 10 -2 6 -14 -5 -14 -4 -15 4 -3 6 8 9 17 6 21 -9 14
21 16 38 2 11 -10 18 -11 23 -3 3 6 3 10 -2 9 -19 -3 -27 2 -14 10 9 6 6 9
-11 9 -13 0 -42 -14 -66 -30z m-8 -39 c-3 -5 -10 -7 -15 -3 -5 3 -7 10 -3 15
3 5 10 7 15 3 5 -3 7 -10 3 -15z"/>
<path d="M5814 2358 c-4 -7 -4 -10 1 -6 4 4 15 2 24 -5 14 -11 14 -10 2 6 -16
20 -18 21 -27 5z"/>
<path d="M1569 2343 c-13 -16 -12 -17 4 -4 9 7 17 15 17 17 0 8 -8 3 -21 -13z"/>
<path d="M1596 2342 c-3 -5 1 -9 9 -9 8 0 12 4 9 9 -3 4 -7 8 -9 8 -2 0 -6 -4
-9 -8z"/>
<path d="M5810 2319 c0 -5 5 -7 10 -4 6 3 10 8 10 11 0 2 -4 4 -10 4 -5 0 -10
-5 -10 -11z"/>
<path d="M1617 2305 c3 -8 9 -12 14 -9 12 7 11 11 -5 17 -10 4 -13 1 -9 -8z"/>
<path d="M5762 2304 c-7 -8 -8 -14 -3 -14 10 0 25 19 20 25 -2 1 -10 -3 -17
-11z"/>
<path d="M1738 2277 c12 -14 -10 -52 -23 -39 -4 4 0 -6 10 -21 10 -15 20 -25
23 -23 3 3 -1 12 -8 21 -7 8 -8 15 -2 15 5 0 15 -7 22 -15 10 -12 10 -18 0
-30 -15 -18 -4 -20 14 -2 17 17 17 29 0 48 -8 9 -11 19 -8 22 8 8 -14 37 -28
37 -7 0 -7 -4 0 -13z m19 -24 c-4 -3 1 -16 10 -27 18 -21 18 -21 -4 -2 -20 16
-23 36 -6 36 4 0 3 -3 0 -7z"/>
<path d="M5706 2263 c-6 -14 -5 -15 5 -6 7 7 10 15 7 18 -3 3 -9 -2 -12 -12z"/>
<path d="M5733 2245 c0 -8 4 -12 9 -9 5 3 6 10 3 15 -9 13 -12 11 -12 -6z"/>
<path d="M1646 2218 c3 -5 10 -6 15 -3 13 9 11 12 -6 12 -8 0 -12 -4 -9 -9z"/>
<path d="M5633 2209 c-2 -23 3 -25 10 -4 4 8 3 16 -1 19 -4 3 -9 -4 -9 -15z"/>
<path d="M5595 2200 c-18 -20 -18 -21 0 -14 13 5 16 4 11 -4 -4 -7 -3 -12 2
-12 6 0 9 11 8 25 0 14 -1 25 -2 25 0 0 -9 -9 -19 -20z"/>
<path d="M5655 2199 c-4 -6 -5 -12 -2 -15 2 -3 7 2 10 11 7 17 1 20 -8 4z"/>
<path d="M1710 2179 c0 -5 5 -7 10 -4 6 3 10 8 10 11 0 2 -4 4 -10 4 -5 0 -10
-5 -10 -11z"/>
<path d="M5595 2149 c-4 -6 -5 -12 -2 -15 2 -3 7 2 10 11 7 17 1 20 -8 4z"/>
<path d="M5635 2140 c3 -5 8 -10 11 -10 2 0 4 5 4 10 0 6 -5 10 -11 10 -5 0
-7 -4 -4 -10z"/>
<path d="M1754 2131 c4 -6 3 -18 -3 -25 -8 -9 -7 -13 2 -13 16 0 20 34 5 43
-7 4 -8 2 -4 -5z"/>
<path d="M5505 2110 c-16 -17 -30 -39 -32 -50 -3 -20 -3 -20 17 0 12 12 25 18
30 15 6 -4 10 -1 10 5 0 7 -8 9 -22 4 -23 -7 -23 -7 -4 15 l20 22 13 -23 c12
-21 13 -21 11 -3 -2 15 3 20 19 19 12 0 19 4 16 9 -3 5 -16 6 -30 2 -16 -4
-22 -2 -18 5 11 19 -1 10 -30 -20z"/>
<path d="M1700 2100 c-9 -6 -10 -10 -3 -10 6 0 15 5 18 10 8 12 4 12 -15 0z"/>
<path d="M1790 2085 c0 -5 5 -17 10 -25 5 -8 10 -10 10 -5 0 6 -5 17 -10 25
-5 8 -10 11 -10 5z"/>
<path d="M1749 2063 c-13 -16 -12 -17 4 -4 9 7 17 15 17 17 0 8 -8 3 -21 -13z"/>
<path d="M5510 2051 c0 -7 -5 -9 -12 -5 -7 5 -8 3 -3 -5 5 -9 10 -10 18 -2 6
6 8 14 4 18 -4 3 -7 1 -7 -6z"/>
<path d="M5441 2036 c-9 -11 -9 -16 0 -22 7 -4 9 -3 5 4 -3 5 0 12 6 15 7 2
10 7 7 11 -3 4 -12 0 -18 -8z"/>
<path d="M5530 2039 c0 -5 5 -7 10 -4 6 3 10 8 10 11 0 2 -4 4 -10 4 -5 0 -10
-5 -10 -11z"/>
<path d="M5385 1985 c-27 -29 -28 -34 -14 -38 13 -4 16 0 11 12 -5 14 -4 15
14 1 17 -14 18 -14 6 2 -8 10 -9 19 -3 22 5 3 12 0 15 -6 3 -7 3 -2 -1 12 -5
23 -5 24 13 10 18 -14 18 -14 5 3 -7 9 -14 17 -15 16 0 0 -15 -15 -31 -34z"/>
<path d="M5455 1999 c-4 -5 2 -6 12 -2 16 6 17 5 3 -13 -14 -19 -14 -19 8 0
12 11 22 20 22 20 0 7 -41 3 -45 -5z"/>
<path d="M1875 1990 c-4 -6 -11 -7 -17 -4 -7 4 -8 2 -4 -5 6 -9 12 -9 24 1 10
7 19 14 21 15 2 2 -1 3 -7 3 -6 0 -14 -5 -17 -10z"/>
<path d="M5428 1953 c7 -3 16 -2 19 1 4 3 -2 6 -13 5 -11 0 -14 -3 -6 -6z"/>
<path d="M5350 1929 c0 -5 5 -7 10 -4 6 3 10 8 10 11 0 2 -4 4 -10 4 -5 0 -10
-5 -10 -11z"/>
<path d="M5310 1903 c-14 -14 -19 -22 -11 -18 11 6 13 4 8 -8 -3 -9 -2 -19 4
-22 5 -4 9 -3 8 2 -3 20 2 34 11 28 5 -3 7 -13 4 -23 -5 -14 -4 -14 4 -2 7 9
7 18 1 26 -5 6 -7 19 -3 28 8 21 4 20 -26 -11z"/>
<path d="M5376 1921 c-3 -4 0 -13 6 -21 8 -12 9 -11 4 4 -5 13 -2 17 9 13 8
-4 16 -3 19 1 3 4 -4 8 -14 9 -11 1 -22 -2 -24 -6z"/>
<path d="M1946 1904 c-4 -9 -4 -19 -1 -22 3 -3 5 0 5 7 0 7 4 9 10 6 6 -3 7 1
4 9 -8 20 -10 20 -18 0z"/>
<path d="M5350 1900 c0 -5 5 -10 11 -10 5 0 7 5 4 10 -3 6 -8 10 -11 10 -2 0
-4 -4 -4 -10z"/>
<path d="M5256 1861 c-7 -11 20 -41 37 -41 7 0 4 5 -6 11 -9 6 -15 14 -12 19
3 5 1 11 -4 14 -5 4 -12 2 -15 -3z"/>
<path d="M5333 1825 c0 -8 4 -15 9 -15 4 0 8 4 8 9 0 6 -4 12 -8 15 -5 3 -9
-1 -9 -9z"/>
<path d="M1990 1826 c0 -2 7 -7 16 -10 8 -3 12 -2 9 4 -6 10 -25 14 -25 6z"/>
<path d="M5221 1812 c-18 -15 -19 -19 -6 -36 8 -11 15 -15 15 -9 0 7 -5 15
-12 19 -15 10 19 35 38 27 8 -3 14 -3 14 0 0 14 -32 14 -49 -1z"/>
<path d="M1976 1798 c3 -5 10 -6 15 -3 13 9 11 12 -6 12 -8 0 -12 -4 -9 -9z"/>
<path d="M5275 1799 c-4 -6 -4 -13 -1 -16 3 -4 6 -1 6 6 0 7 5 9 12 5 7 -4 8
-3 4 4 -9 15 -13 15 -21 1z"/>
<path d="M5242 1780 c7 -10 14 -18 15 -16 6 6 -9 36 -18 36 -5 0 -4 -9 3 -20z"/>
<path d="M2035 1780 c-3 -6 1 -7 9 -4 18 7 21 14 7 14 -6 0 -13 -4 -16 -10z"/>
<path d="M2056 1755 c7 -18 6 -19 -12 -5 -18 14 -18 14 -5 -3 10 -12 17 -15
25 -7 7 7 6 14 -3 23 -10 10 -11 8 -5 -8z"/>
<path d="M5215 1740 c-3 -5 -1 -10 4 -10 6 0 11 5 11 10 0 6 -2 10 -4 10 -3 0
-8 -4 -11 -10z"/>
<path d="M5190 1731 c0 -6 4 -13 10 -16 6 -3 7 1 4 9 -7 18 -14 21 -14 7z"/>
<path d="M2056 1702 c-2 -4 -1 -14 4 -22 7 -11 9 -9 7 8 -1 24 -3 26 -11 14z"/>
<path d="M5105 1699 c-4 -6 2 -13 14 -16 11 -3 19 -9 16 -13 -3 -5 -2 -11 3
-14 5 -3 9 2 9 11 0 9 -9 18 -19 21 -10 2 -15 8 -12 13 3 5 3 9 0 9 -3 0 -8
-5 -11 -11z"/>
<path d="M5188 1683 c7 -3 16 -2 19 1 4 3 -2 6 -13 5 -11 0 -14 -3 -6 -6z"/>
<path d="M2137 1674 c7 -3 9 -13 6 -22 -4 -14 -3 -14 5 -2 12 16 7 30 -11 29
-9 0 -9 -2 0 -5z"/>
<path d="M2171 1630 c14 -31 19 -36 19 -24 0 6 -7 19 -16 30 -14 18 -14 18 -3
-6z"/>
<path d="M5110 1646 c0 -2 7 -7 16 -10 8 -3 12 -2 9 4 -6 10 -25 14 -25 6z"/>
<path d="M2116 1613 c-6 -14 -5 -15 5 -6 7 7 10 15 7 18 -3 3 -9 -2 -12 -12z"/>
<path d="M5036 1622 c-2 -4 4 -13 15 -20 22 -14 25 -7 5 14 -8 8 -17 11 -20 6z"/>
<path d="M5135 1609 c-4 -6 -5 -12 -2 -15 2 -3 7 2 10 11 7 17 1 20 -8 4z"/>
<path d="M2073 1595 c0 -8 4 -12 9 -9 5 3 6 10 3 15 -9 13 -12 11 -12 -6z"/>
<path d="M2155 1600 c3 -5 8 -10 11 -10 2 0 4 5 4 10 0 6 -5 10 -11 10 -5 0
-7 -4 -4 -10z"/>
<path d="M4991 1576 c-18 -19 -20 -24 -7 -29 11 -4 13 -1 9 11 -6 15 -5 15 10
3 14 -11 18 -11 23 3 4 10 13 15 23 12 11 -4 10 -2 -3 9 -26 20 -29 19 -55 -9z
m33 -1 c-4 -8 -10 -12 -15 -9 -11 6 -2 24 11 24 5 0 7 -7 4 -15z"/>
<path d="M2150 1541 c0 -6 4 -13 10 -16 6 -3 7 1 4 9 -7 18 -14 21 -14 7z"/>
<path d="M5016 1527 c3 -10 9 -15 12 -12 3 3 0 11 -7 18 -10 9 -11 8 -5 -6z"/>
<path d="M2226 1517 c3 -10 9 -15 12 -12 3 3 0 11 -7 18 -10 9 -11 8 -5 -6z"/>
<path d="M4994 1522 c3 -5 0 -12 -6 -15 -7 -2 -10 -7 -7 -11 3 -4 12 0 18 8 9
11 9 16 0 22 -7 4 -9 3 -5 -4z"/>
<path d="M5046 1518 c3 -5 10 -6 15 -3 13 9 11 12 -6 12 -8 0 -12 -4 -9 -9z"/>
<path d="M4903 1485 c-26 -23 -27 -24 -5 -20 12 2 27 7 32 10 6 3 10 2 10 -4
0 -5 -5 -11 -12 -13 -8 -3 -7 -6 3 -10 17 -7 24 28 8 37 -5 4 -7 11 -4 16 11
16 -3 10 -32 -16z m27 1 c0 -2 -7 -7 -16 -10 -8 -3 -12 -2 -9 4 6 10 25 14 25
6z"/>
<path d="M2276 1487 c3 -10 9 -15 12 -12 3 3 0 11 -7 18 -10 9 -11 8 -5 -6z"/>
<path d="M2239 1473 c-12 -16 -12 -17 2 -6 9 7 20 9 24 5 5 -4 5 -1 1 6 -9 16
-11 15 -27 -5z"/>
<path d="M4878 1439 c-10 -5 -18 -14 -18 -19 0 -6 8 -10 18 -10 14 0 15 2 2
10 -13 8 -13 10 2 10 9 0 20 5 23 10 8 13 -5 12 -27 -1z"/>
<path d="M4910 1426 c0 -2 9 -6 20 -9 11 -3 18 -1 14 4 -5 9 -34 13 -34 5z"/>
<path d="M4805 1380 c-10 -12 -13 -20 -7 -20 7 0 12 5 12 10 0 6 12 3 28 -6
18 -11 21 -11 10 -2 -10 8 -15 17 -12 20 3 4 1 9 -4 12 -5 3 -17 -3 -27 -14z"/>
<path d="M4896 1378 c3 -5 10 -6 15 -3 13 9 11 12 -6 12 -8 0 -12 -4 -9 -9z"/>
<path d="M2296 1355 c-9 -26 -7 -32 5 -12 6 10 9 21 6 23 -2 3 -7 -2 -11 -11z"/>
<path d="M2353 1346 c0 -15 21 -16 34 -1 4 4 2 5 -4 1 -7 -4 -13 -2 -13 3 0 6
-4 11 -8 11 -5 0 -9 -6 -9 -14z"/>
<path d="M4769 1334 c-31 -16 -62 -50 -65 -70 -2 -12 1 -13 12 -3 7 6 12 14
10 18 -2 3 2 12 9 18 11 10 15 9 20 -8 4 -11 9 -18 12 -16 2 3 -1 15 -7 28
-10 18 -10 21 2 17 8 -4 20 3 26 13 7 10 11 19 10 18 -2 -1 -15 -7 -29 -15z"/>
<path d="M4811 1347 c2 -1 13 -9 24 -17 19 -14 19 -14 6 3 -7 9 -18 17 -24 17
-6 0 -8 -1 -6 -3z"/>
<path d="M4797 1323 c-11 -10 -8 -20 8 -26 8 -4 17 -2 20 4 4 5 3 9 -2 8 -20
-3 -27 2 -13 11 8 5 10 10 4 10 -6 0 -14 -3 -17 -7z"/>
<path d="M2377 1310 c7 -8 20 -15 29 -16 9 -1 13 1 9 4 -4 4 -10 7 -13 7 -4 0
-14 4 -22 9 -12 7 -13 6 -3 -4z"/>
<path d="M2437 1266 c-4 -10 -3 -15 3 -11 6 3 10 1 10 -6 0 -7 3 -10 6 -6 3 3
2 13 -4 22 -8 16 -9 16 -15 1z"/>
<path d="M2522 1271 c-11 -7 -11 -9 2 -14 10 -4 16 -1 16 8 0 17 -1 17 -18 6z"/>
<path d="M4736 1265 c-3 -9 -2 -14 3 -10 5 3 11 -1 14 -7 2 -7 7 -11 10 -8 3
3 0 13 -8 23 -11 16 -13 16 -19 2z"/>
<path d="M2395 1251 c-3 -5 -2 -12 3 -15 5 -3 9 1 9 9 0 17 -3 19 -12 6z"/>
<path d="M4708 1233 c6 -2 18 -2 25 0 6 3 1 5 -13 5 -14 0 -19 -2 -12 -5z"/>
<path d="M2470 1200 c0 -5 5 -10 11 -10 5 0 7 5 4 10 -3 6 -8 10 -11 10 -2 0
-4 -4 -4 -10z"/>
<path d="M4635 1197 c-11 -9 -15 -19 -10 -27 5 -9 1 -11 -16 -6 -13 3 -18 3
-11 0 6 -3 10 -10 7 -14 -3 -5 0 -12 6 -16 7 -4 9 -3 6 3 -4 6 0 13 8 17 9 3
12 12 8 22 -4 12 -3 15 5 10 7 -4 12 -2 12 4 0 6 5 8 12 4 7 -4 8 -3 4 4 -9
15 -8 15 -31 -1z"/>
<path d="M2581 1181 c-8 -14 -7 -20 2 -24 8 -3 13 4 13 19 0 29 -2 30 -15 5z"/>
<path d="M4679 1193 c-5 -36 -5 -62 -1 -58 7 7 12 65 6 65 -2 0 -4 -3 -5 -7z"/>
<path d="M2455 1171 c-3 -5 -2 -12 3 -15 5 -3 9 1 9 9 0 17 -3 19 -12 6z"/>
<path d="M2516 1162 c-3 -5 4 -16 15 -25 10 -9 19 -12 19 -7 0 6 -7 13 -15 16
-8 4 -12 10 -9 15 3 5 3 9 0 9 -3 0 -7 -4 -10 -8z"/>
<path d="M4715 1140 c-3 -5 -1 -10 4 -10 6 0 11 5 11 10 0 6 -2 10 -4 10 -3 0
-8 -4 -11 -10z"/>
<path d="M4563 1128 c-5 -7 -8 -19 -7 -25 1 -7 2 -19 3 -25 1 -9 4 -9 10 2 6
8 7 18 5 22 -5 8 9 12 36 9 13 -2 13 0 1 8 -8 5 -21 7 -29 3 -10 -3 -13 -1 -8
6 10 16 1 15 -11 0z"/>
<path d="M4630 1131 c0 -6 4 -12 8 -15 5 -3 9 1 9 9 0 8 -4 15 -9 15 -4 0 -8
-4 -8 -9z"/>
<path d="M2541 1094 c0 -11 3 -14 6 -6 3 7 2 16 -1 19 -3 4 -6 -2 -5 -13z"/>
<path d="M2576 1082 c-2 -4 7 -19 21 -32 25 -24 26 -24 14 -2 -6 12 -16 22
-22 22 -6 0 -7 5 -4 10 3 6 4 10 1 10 -3 0 -7 -3 -10 -8z"/>
<path d="M4536 1065 c4 -8 8 -15 10 -15 2 0 4 7 4 15 0 8 -4 15 -10 15 -5 0
-7 -7 -4 -15z"/>
<path d="M4616 1058 c3 -5 10 -6 15 -3 13 9 11 12 -6 12 -8 0 -12 -4 -9 -9z"/>
<path d="M4485 1049 c-4 -6 -5 -12 -2 -15 2 -3 7 2 10 11 7 17 1 20 -8 4z"/>
<path d="M4533 1023 c0 -8 6 -9 19 -2 10 5 18 11 18 12 0 2 -8 3 -18 3 -10 0
-19 -6 -19 -13z"/>
<path d="M2705 1005 c2 -16 -2 -36 -9 -44 -8 -12 -8 -13 2 -7 7 4 12 2 12 -4
0 -7 7 -10 15 -6 8 3 15 1 15 -4 0 -6 -8 -10 -17 -10 -17 -1 -16 -2 1 -11 14
-9 22 -7 35 6 9 10 10 15 4 11 -7 -4 -13 -3 -13 3 0 5 5 11 11 13 5 2 -6 21
-25 43 l-34 40 3 -30z m39 -32 c4 -9 4 -18 1 -21 -3 -3 -5 1 -5 9 0 12 -2 12
-9 0 -6 -9 -11 -10 -15 -2 -4 6 -2 11 5 11 8 0 8 4 -1 15 -11 13 -10 14 3 9 8
-3 18 -13 21 -21z"/>
<path d="M2638 993 c7 -3 16 -2 19 1 4 3 -2 6 -13 5 -11 0 -14 -3 -6 -6z"/>
<path d="M2540 985 c0 -2 6 -8 13 -14 10 -8 14 -7 14 2 0 8 -6 14 -14 14 -7 0
-13 -1 -13 -2z"/>
<path d="M2666 982 c-3 -5 1 -9 9 -9 8 0 15 4 15 9 0 4 -4 8 -9 8 -6 0 -12 -4
-15 -8z"/>
<path d="M4470 981 c0 -6 4 -13 10 -16 6 -3 7 1 4 9 -7 18 -14 21 -14 7z"/>
<path d="M2693 904 c1 -21 27 -23 27 -2 0 5 -4 7 -9 4 -5 -4 -11 0 -14 6 -3 7
-4 3 -4 -8z"/>
<path d="M4426 882 c-3 -5 1 -9 9 -9 8 0 12 4 9 9 -3 4 -7 8 -9 8 -2 0 -6 -4
-9 -8z"/>
<path d="M4304 859 c-10 -11 -14 -20 -9 -19 26 6 46 -1 39 -12 -4 -7 -3 -10 1
-5 15 13 15 45 1 50 -8 3 -22 -3 -32 -14z m31 1 c3 -5 -1 -10 -10 -10 -9 0
-13 5 -10 10 3 6 8 10 10 10 2 0 7 -4 10 -10z"/>
<path d="M2696 853 c-6 -14 -5 -15 5 -6 7 7 10 15 7 18 -3 3 -9 -2 -12 -12z"/>
<path d="M2726 862 c-3 -5 1 -9 9 -9 8 0 15 4 15 9 0 4 -4 8 -9 8 -6 0 -12 -4
-15 -8z"/>
<path d="M2755 841 c-3 -5 -2 -12 3 -15 5 -3 9 1 9 9 0 17 -3 19 -12 6z"/>
<path d="M2759 808 c-5 -18 -6 -38 -1 -34 7 8 12 36 6 36 -2 0 -4 -1 -5 -2z"/>
<path d="M2797 789 c7 -7 15 -10 18 -7 3 3 -2 9 -12 12 -14 6 -15 5 -6 -5z"/>
<path d="M2820 770 c-9 -6 -10 -10 -3 -10 6 0 15 5 18 10 8 12 4 12 -15 0z"/>
<path d="M4300 760 c-9 -6 -10 -10 -3 -10 6 0 15 5 18 10 8 12 4 12 -15 0z"/>
<path d="M2790 736 c7 -7 13 -7 20 0 6 6 3 10 -10 10 -13 0 -16 -4 -10 -10z"/>
<path d="M4290 726 c0 -2 7 -7 16 -10 8 -3 12 -2 9 4 -6 10 -25 14 -25 6z"/>
<path d="M4142 681 c-10 -6 -10 -10 3 -21 13 -11 15 -10 9 4 -3 9 -1 16 4 16
6 0 13 -10 15 -22 5 -21 5 -21 4 1 -2 27 -15 35 -35 22z"/>
<path d="M2900 660 c-9 -6 -10 -10 -3 -10 6 0 15 5 18 10 8 12 4 12 -15 0z"/>
<path d="M2915 630 c3 -5 8 -10 11 -10 2 0 4 5 4 10 0 6 -5 10 -11 10 -5 0 -7
-4 -4 -10z"/>
<path d="M2890 621 c0 -6 4 -13 10 -16 6 -3 7 1 4 9 -7 18 -14 21 -14 7z"/>
<path d="M3013 624 c3 -4 1 -16 -4 -27 -9 -16 -8 -22 4 -29 9 -5 14 -15 11
-22 -3 -7 1 -20 8 -28 7 -7 18 -22 23 -32 6 -10 14 -18 18 -17 11 2 36 -23 30
-32 -2 -4 -10 -4 -16 0 -7 4 -5 -2 3 -13 22 -29 24 -30 17 -12 -3 9 0 22 8 28
13 11 14 47 2 43 -41 -16 -64 -2 -51 31 3 8 -4 24 -15 35 -12 12 -16 21 -9 21
6 0 4 6 -7 13 -13 10 -15 16 -6 21 13 8 5 26 -11 26 -6 0 -8 -3 -5 -6z m41
-90 c9 -24 7 -27 -9 -10 -17 17 -19 26 -6 26 5 0 12 -7 15 -16z m63 -69 c0 -8
-4 -12 -9 -9 -5 3 -6 10 -3 15 9 13 12 11 12 -6z"/>
<path d="M4160 620 c-9 -6 -10 -10 -3 -10 6 0 15 5 18 10 8 12 4 12 -15 0z"/>
<path d="M2988 553 c7 -3 16 -2 19 1 4 3 -2 6 -13 5 -11 0 -14 -3 -6 -6z"/>
<path d="M4050 540 c0 -5 5 -10 10 -10 6 0 10 5 10 10 0 6 -4 10 -10 10 -5 0
-10 -4 -10 -10z"/>
<path d="M2988 523 c7 -3 16 -2 19 1 4 3 -2 6 -13 5 -11 0 -14 -3 -6 -6z"/>
<path d="M2976 487 c3 -10 9 -15 12 -12 3 3 0 11 -7 18 -10 9 -11 8 -5 -6z"/>
<path d="M3996 473 c-6 -14 -5 -15 5 -6 7 7 10 15 7 18 -3 3 -9 -2 -12 -12z"/>
<path d="M3024 468 c3 -15 26 -23 26 -8 0 6 -4 9 -9 6 -5 -4 -12 -1 -14 4 -3
6 -4 5 -3 -2z"/>
<path d="M3891 426 c-17 -18 -19 -26 -10 -31 7 -5 10 -4 7 1 -3 5 0 15 8 22 8
7 14 8 14 2 0 -5 5 -10 11 -10 8 0 9 4 0 13 -6 8 -8 17 -4 20 3 4 4 7 1 7 -2
0 -15 -11 -27 -24z"/>
<path d="M3035 431 c-3 -5 -2 -12 3 -15 5 -3 9 1 9 9 0 17 -3 19 -12 6z"/>
<path d="M3155 430 c3 -5 8 -10 11 -10 2 0 4 5 4 10 0 6 -5 10 -11 10 -5 0 -7
-4 -4 -10z"/>
<path d="M3976 415 c-9 -26 -7 -32 5 -12 6 10 9 21 6 23 -2 3 -7 -2 -11 -11z"/>
<path d="M3076 395 c-9 -26 -7 -32 5 -12 6 10 9 21 6 23 -2 3 -7 -2 -11 -11z"/>
<path d="M3205 391 c-3 -5 -1 -12 5 -16 5 -3 10 1 10 9 0 18 -6 21 -15 7z"/>
<path d="M3855 388 c6 -16 -2 -22 -26 -20 -3 0 -11 -8 -17 -19 -12 -19 -12
-19 13 -3 14 9 25 12 25 8 0 -5 5 -1 11 9 8 14 8 22 -1 30 -8 9 -10 8 -5 -5z"/>
<path d="M3901 384 c0 -11 3 -14 6 -6 3 7 2 16 -1 19 -3 4 -6 -2 -5 -13z"/>
<path d="M3930 396 c0 -2 8 -10 18 -17 15 -13 16 -12 3 4 -13 16 -21 21 -21
13z"/>
<path d="M3025 380 c-3 -6 1 -7 9 -4 18 7 21 14 7 14 -6 0 -13 -4 -16 -10z"/>
<path d="M3869 349 c-6 -11 -8 -23 -5 -27 3 -3 6 0 6 7 0 7 4 9 10 6 6 -3 7 1
4 10 -5 11 -2 14 10 9 9 -3 16 -4 16 -1 0 16 -31 13 -41 -4z"/>
<path d="M3137 339 c6 -23 9 -24 16 -5 3 8 0 17 -7 19 -10 4 -12 -1 -9 -14z"/>
<path d="M3825 329 c-11 -16 -1 -19 13 -3 7 8 8 14 3 14 -5 0 -13 -5 -16 -11z"/>
<path d="M3767 300 c-15 -12 -24 -27 -20 -35 8 -22 22 -18 18 5 -2 11 -1 20 3
21 4 0 15 2 25 4 9 2 17 -2 17 -8 0 -5 2 -8 5 -5 7 7 -5 38 -15 38 -4 0 -19
-9 -33 -20z"/>
<path d="M3149 297 c6 -8 9 -16 6 -19 -3 -2 2 -5 10 -5 13 0 13 3 -2 19 -19
21 -31 25 -14 5z"/>
<path d="M3835 300 c-3 -6 1 -7 9 -4 18 7 21 14 7 14 -6 0 -13 -4 -16 -10z"/>
<path d="M3773 235 c-3 -9 -3 -18 -1 -21 3 -3 8 4 11 16 6 23 -1 27 -10 5z"/>
<path d="M3228 233 c6 -2 10 -9 7 -14 -4 -5 1 -6 10 -2 13 5 14 7 3 14 -7 5
-17 8 -23 8 -5 0 -4 -3 3 -6z"/>
<path d="M3694 206 c1 -13 -5 -21 -16 -21 -9 0 -25 -8 -36 -18 -23 -21 -69
-29 -78 -15 -3 5 -14 2 -25 -8 -10 -9 -17 -19 -15 -23 2 -3 -2 -11 -9 -18 -10
-10 -15 -9 -19 4 -5 12 -9 14 -18 5 -9 -9 -16 -7 -31 6 -10 9 -21 17 -23 17
-7 0 -35 -58 -30 -63 3 -2 1 -14 -5 -26 -10 -20 -9 -20 5 -3 8 11 12 26 9 35
-6 16 -5 16 13 1 10 -9 35 -24 54 -33 23 -11 29 -12 18 -3 -10 8 -15 17 -11
21 3 3 14 -1 24 -10 21 -19 37 -1 19 21 -9 11 -7 13 17 11 15 -1 34 2 41 7 8
6 12 6 12 -2 0 -8 4 -8 14 1 11 11 11 15 -3 25 -14 11 -12 12 11 11 23 -2 27
-6 22 -23 -3 -11 3 -6 15 12 15 24 25 31 38 26 15 -5 15 -3 -2 10 -13 11 -15
16 -7 17 8 0 23 10 34 23 14 16 18 17 14 5 -3 -10 -2 -19 2 -22 4 -3 8 4 9 14
2 19 -11 33 -33 36 -6 1 -11 -8 -10 -20z m-28 -41 c-3 -19 -13 -28 -32 -31
-12 -2 -10 4 7 22 26 28 28 29 25 9z m-81 -34 c-3 -2 1 -11 8 -19 8 -11 8 -14
0 -9 -6 4 -15 3 -18 -3 -5 -8 -11 -8 -20 0 -10 8 -15 7 -19 -2 -3 -7 -4 -4 -3
7 1 11 6 23 11 27 11 7 48 7 41 -1z m-108 -30 c10 7 15 9 11 5 -5 -5 1 -15 12
-23 11 -8 20 -19 20 -25 0 -6 -8 -4 -18 5 -14 13 -21 14 -30 5 -8 -8 -18 -7
-37 6 -22 15 -24 20 -14 33 12 13 14 13 26 -3 11 -15 15 -15 30 -3z"/>
<path d="M3552 121 c2 -7 7 -12 11 -12 12 1 9 15 -3 20 -7 2 -11 -2 -8 -8z"/>
<path d="M3426 101 c-3 -5 1 -11 9 -14 9 -4 12 -1 8 9 -6 16 -10 17 -17 5z"/>
<path d="M3254 204 c-18 -14 -18 -15 4 -4 12 6 22 13 22 15 0 8 -5 6 -26 -11z"/>
<path d="M3736 147 c3 -10 9 -15 12 -12 3 3 0 11 -7 18 -10 9 -11 8 -5 -6z"/>
<path d="M3255 120 c3 -5 8 -10 11 -10 2 0 4 5 4 10 0 6 -5 10 -11 10 -5 0 -7
-4 -4 -10z"/>
<path d="M3670 126 c0 -2 7 -7 16 -10 8 -3 12 -2 9 4 -6 10 -25 14 -25 6z"/>
<path d="M3318 113 c7 -3 16 -2 19 1 4 3 -2 6 -13 5 -11 0 -14 -3 -6 -6z"/>
<path d="M3655 99 c-11 -16 -1 -19 13 -3 7 8 8 14 3 14 -5 0 -13 -5 -16 -11z"/>
<path d="M3693 75 c0 -8 4 -12 9 -9 5 3 6 10 3 15 -9 13 -12 11 -12 -6z"/>
<path d="M3350 70 c0 -6 7 -10 15 -10 8 0 15 2 15 4 0 2 -7 6 -15 10 -8 3 -15
1 -15 -4z"/>
<path d="M3590 60 c0 -5 5 -10 11 -10 5 0 7 5 4 10 -3 6 -8 10 -11 10 -2 0 -4
-4 -4 -10z"/>
<path d="M3534 35 c-4 -8 -10 -13 -14 -10 -5 3 -11 1 -14 -4 -4 -5 1 -8 10 -7
15 2 42 36 29 36 -3 0 -8 -7 -11 -15z"/>
<path d="M3439 38 c-5 -18 -6 -38 -1 -34 7 8 12 36 6 36 -2 0 -4 -1 -5 -2z"/>
<path d="M3555 29 c-4 -6 -5 -12 -2 -15 2 -3 7 2 10 11 7 17 1 20 -8 4z"/>
<path d="M3473 15 c0 -8 4 -12 9 -9 5 3 6 10 3 15 -9 13 -12 11 -12 -6z"/>
<path d="M3596 13 c-6 -14 -5 -15 5 -6 7 7 10 15 7 18 -3 3 -9 -2 -12 -12z"/>
</g>
</svg>
